<?xml version="1.0" ?><svg data-name="001" id="_001" viewBox="0 0 128 128" xmlns="http://www.w3.org/2000/svg"><defs><style>.cls-1{opacity:0.3;}.cls-2{fill:#97c1ff;}.cls-12,.cls-3{fill:#c9c1f5;}.cls-4{fill:#6d6daa;}.cls-5{fill:#ff968c;}.cls-6{fill:#fff2cc;}.cls-7{fill:#f2eed5;}.cls-8{fill:#e0f3ff;}.cls-9{fill:#b1f1a8;}.cls-10{opacity:0.5;}.cls-11{fill:#fff;}.cls-12,.cls-13,.cls-14{fill-rule:evenodd;}.cls-13,.cls-15{fill:#ddd9ff;}.cls-14{fill:#554dad;}.cls-16{fill:#eef6ff;}.cls-17{fill:#ced8ee;}.cls-18{fill:#2b5c8e;}.cls-19{fill:#939fc6;}.cls-20{fill:#c7e9ff;}.cls-21{fill:#1c64ba;}</style></defs><title/><g class="cls-1"><path class="cls-2" d="M116,48a39,39,0,1,0-77-12.09A20.62,20.62,0,0,1,23.54,52.71a30.75,30.75,0,1,0,22,57c7.61-4,17-2.68,22.64,3.84A33.75,33.75,0,0,0,121.6,72.44,33.63,33.63,0,0,1,116,48Z"/><rect class="cls-3" height="22" width="25" x="97" y="71"/><path class="cls-4" d="M122,94H97a1,1,0,0,1-1-1V71a1,1,0,0,1,1-1h25a1,1,0,0,1,1,1V93A1,1,0,0,1,122,94ZM98,92h23V72H98Z"/><rect class="cls-3" height="5" width="27" x="96" y="66"/><path class="cls-4" d="M123,72H96a1,1,0,0,1-1-1V66a1,1,0,0,1,1-1h27a1,1,0,0,1,1,1v5A1,1,0,0,1,123,72ZM97,70h25V67H97Z"/><rect class="cls-5" height="21" width="6" x="31.99" y="72"/><path class="cls-4" d="M38,94H32a1,1,0,0,1-1-1V72a1,1,0,0,1,1-1h6a1,1,0,0,1,1,1V93A1,1,0,0,1,38,94Zm-5-2h4V73H33Z"/><rect class="cls-6" height="21" width="6" x="37.99" y="72"/><path class="cls-4" d="M44,94H38a1,1,0,0,1-1-1V72a1,1,0,0,1,1-1h6a1,1,0,0,1,1,1V93A1,1,0,0,1,44,94Zm-5-2h4V73H39Z"/><rect class="cls-7" height="21" width="6" x="62" y="72"/><path class="cls-4" d="M68,94H62a1,1,0,0,1-1-1V72a1,1,0,0,1,1-1h6a1,1,0,0,1,1,1V93A1,1,0,0,1,68,94Zm-5-2h4V73H63Z"/><rect class="cls-8" height="21" width="6" x="74" y="72"/><path class="cls-4" d="M80,94H74a1,1,0,0,1-1-1V72a1,1,0,0,1,1-1h6a1,1,0,0,1,1,1V93A1,1,0,0,1,80,94Zm-5-2h4V73H75Z"/><rect class="cls-5" height="21" width="6" x="68" y="72"/><path class="cls-4" d="M74,94H68a1,1,0,0,1-1-1V72a1,1,0,0,1,1-1h6a1,1,0,0,1,1,1V93A1,1,0,0,1,74,94Zm-5-2h4V73H69Z"/><rect class="cls-8" height="21" width="6" x="86" y="72"/><path class="cls-4" d="M92,94H86a1,1,0,0,1-1-1V72a1,1,0,0,1,1-1h6a1,1,0,0,1,1,1V93A1,1,0,0,1,92,94Zm-5-2h4V73H87Z"/><rect class="cls-5" height="21" width="6" x="80" y="72"/><path class="cls-4" d="M86,94H80a1,1,0,0,1-1-1V72a1,1,0,0,1,1-1h6a1,1,0,0,1,1,1V93A1,1,0,0,1,86,94Zm-5-2h4V73H81Z"/><rect class="cls-7" height="21" width="6" x="43.99" y="72"/><path class="cls-4" d="M50,94H44a1,1,0,0,1-1-1V72a1,1,0,0,1,1-1h6a1,1,0,0,1,1,1V93A1,1,0,0,1,50,94Zm-5-2h4V73H45Z"/><rect class="cls-8" height="21" width="6" x="55.99" y="72"/><path class="cls-4" d="M62,94H56a1,1,0,0,1-1-1V72a1,1,0,0,1,1-1h6a1,1,0,0,1,1,1V93A1,1,0,0,1,62,94Zm-5-2h4V73H57Z"/><rect class="cls-5" height="21" width="6" x="49.99" y="72"/><path class="cls-4" d="M56,94H50a1,1,0,0,1-1-1V72a1,1,0,0,1,1-1h6a1,1,0,0,1,1,1V93A1,1,0,0,1,56,94Zm-5-2h4V73H51Z"/><path class="cls-4" d="M112,76h-5a1,1,0,0,1,0-2h5a1,1,0,0,1,0,2Z"/><path class="cls-9" d="M23.18,75.35A39.05,39.05,0,0,0,25,63.2c0-7.79-4.28-12.85-9.56-12.85S5.93,55.5,5.93,63.2A39.05,39.05,0,0,0,7.79,75.35Z"/><g class="cls-10"><path class="cls-11" d="M18.44,50.92a8,8,0,0,0-3-.57c-5.28,0-9.56,5.15-9.56,12.85A39.06,39.06,0,0,0,7.79,75.35h5.88A39.06,39.06,0,0,1,11.81,63.2C11.81,57,14.6,52.45,18.44,50.92Z"/></g><path class="cls-4" d="M23.18,76.35H7.79a1,1,0,0,1-.95-.68A39.83,39.83,0,0,1,4.93,63.2c0-8,4.44-13.85,10.56-13.85S26,55.18,26,63.2a39.83,39.83,0,0,1-1.92,12.48A1,1,0,0,1,23.18,76.35Zm-14.67-2H22.46A38.49,38.49,0,0,0,24,63.2c0-6.86-3.6-11.85-8.56-11.85s-8.56,5-8.56,11.85A38.49,38.49,0,0,0,8.52,74.35Z"/><path class="cls-4" d="M8.13,58a1,1,0,0,1-.55-.17L5.38,56.33a1,1,0,1,1,1.11-1.66l2.21,1.47A1,1,0,0,1,8.13,58Z"/><path class="cls-4" d="M12.18,53.28a1,1,0,0,1-.73-.31L9.63,51a1,1,0,1,1,1.45-1.37l1.82,1.93a1,1,0,0,1-.73,1.69Z"/><path class="cls-4" d="M18.8,53.28a1,1,0,0,1-.68-1.73l1.95-1.8a1,1,0,1,1,1.36,1.47L19.48,53A1,1,0,0,1,18.8,53.28Z"/><path class="cls-4" d="M6.67,66.06A1,1,0,0,1,6.35,66l-2.21-.74a1,1,0,0,1,.63-1.9L7,64.11a1,1,0,0,1-.32,1.95Z"/><path class="cls-4" d="M5.93,73.41a1,1,0,0,1-.32-1.95l2.21-.74a1,1,0,0,1,.63,1.9l-2.21.74A1,1,0,0,1,5.93,73.41Z"/><path class="cls-4" d="M23.58,60.18A1,1,0,0,1,23,58.34l2.21-1.47a1,1,0,1,1,1.11,1.66L24.13,60A1,1,0,0,1,23.58,60.18Z"/><path class="cls-4" d="M25.78,64.59H24.31a1,1,0,0,1,0-2h1.47a1,1,0,1,1,0,2Z"/><path class="cls-4" d="M12.55,69.73a1,1,0,0,1-.71-.29l-.74-.74a1,1,0,0,1,1.41-1.41l.74.74a1,1,0,0,1-.71,1.71Z"/><path class="cls-4" d="M12.55,60.91a1,1,0,0,1-.71-.29l-.74-.74a1,1,0,0,1,1.41-1.41l.74.74a1,1,0,0,1-.71,1.71Z"/><path class="cls-4" d="M18.43,65.32a1,1,0,0,1-.71-1.71l.74-.73a1,1,0,0,1,1.41,1.42l-.74.73A1,1,0,0,1,18.43,65.32Z"/><path class="cls-4" d="M18.43,58a1,1,0,0,1-.71-1.71l.74-.74a1,1,0,0,1,1.41,1.41l-.74.74A1,1,0,0,1,18.43,58Z"/><path class="cls-4" d="M18.43,72.68A1,1,0,0,1,17.72,71l.74-.74a1,1,0,0,1,1.41,1.41l-.74.74A1,1,0,0,1,18.43,72.68Z"/><path class="cls-4" d="M25.78,71.21a1,1,0,0,1-.32-.05l-2.21-.73a1,1,0,0,1,.63-1.9l2.21.73a1,1,0,0,1-.32,1.95Z"/><polygon class="cls-12" points="24.31 93 6.67 93 4.46 79.77 26.52 79.77 24.31 93"/><polygon class="cls-13" points="13.28 93 10.34 93 8.87 79.77 11.81 79.77 13.28 93"/><g class="cls-1"><polygon class="cls-14" points="26.02 82.77 26.52 79.77 4.46 79.77 4.96 82.77 26.02 82.77"/></g><path class="cls-4" d="M24.31,94H6.67a1,1,0,0,1-1-.84L3.47,79.93a1,1,0,0,1,1-1.16H26.52a1,1,0,0,1,1,1.16L25.3,93.16A1,1,0,0,1,24.31,94ZM7.51,92h16l1.87-11.23H5.64Z"/><rect class="cls-3" height="4.41" width="25" x="2.99" y="75.35"/><rect class="cls-15" height="4.41" width="2.94" x="7.4" y="75.35"/><path class="cls-4" d="M28,80.76H3a1,1,0,0,1-1-1V75.35a1,1,0,0,1,1-1H28a1,1,0,0,1,1,1v4.41A1,1,0,0,1,28,80.76Zm-24-2H27V76.35H4Z"/><path class="cls-4" d="M125,94H3a1,1,0,0,1,0-2H125a1,1,0,1,1,0,2Z"/><g class="cls-10"><path class="cls-4" d="M86,77H80a1,1,0,0,1,0-2h6a1,1,0,0,1,0,2Z"/><path class="cls-4" d="M86,90H80a1,1,0,0,1,0-2h6a1,1,0,0,1,0,2Z"/></g><g class="cls-10"><path class="cls-4" d="M92,77H86a1,1,0,0,1,0-2h6a1,1,0,0,1,0,2Z"/><path class="cls-4" d="M92,90H86a1,1,0,0,1,0-2h6a1,1,0,0,1,0,2Z"/></g><g class="cls-10"><path class="cls-4" d="M80,77H74a1,1,0,0,1,0-2h6a1,1,0,0,1,0,2Z"/><path class="cls-4" d="M80,90H74a1,1,0,0,1,0-2h6a1,1,0,0,1,0,2Z"/></g><g class="cls-10"><path class="cls-4" d="M68,77H62a1,1,0,1,1,0-2h6a1,1,0,0,1,0,2Z"/><path class="cls-4" d="M68,90H62a1,1,0,1,1,0-2h6a1,1,0,0,1,0,2Z"/></g><g class="cls-10"><path class="cls-4" d="M74,77H68a1,1,0,0,1,0-2h6a1,1,0,0,1,0,2Z"/><path class="cls-4" d="M74,90H68a1,1,0,0,1,0-2h6a1,1,0,0,1,0,2Z"/></g><g class="cls-10"><path class="cls-4" d="M62,77H56a1,1,0,1,1,0-2h6a1,1,0,0,1,0,2Z"/><path class="cls-4" d="M62,90H56a1,1,0,1,1,0-2h6a1,1,0,0,1,0,2Z"/></g><g class="cls-10"><path class="cls-4" d="M50,77H44a1,1,0,0,1,0-2h6a1,1,0,0,1,0,2Z"/><path class="cls-4" d="M50,90H44a1,1,0,1,1,0-2h6a1,1,0,0,1,0,2Z"/></g><g class="cls-10"><path class="cls-4" d="M56,77H50a1,1,0,0,1,0-2h6a1,1,0,0,1,0,2Z"/><path class="cls-4" d="M56,90H50a1,1,0,1,1,0-2h6a1,1,0,0,1,0,2Z"/></g><g class="cls-10"><path class="cls-4" d="M44,77H38a1,1,0,0,1,0-2h6a1,1,0,0,1,0,2Z"/><path class="cls-4" d="M44,90H38a1,1,0,0,1,0-2h6a1,1,0,0,1,0,2Z"/></g><g class="cls-10"><path class="cls-4" d="M38,77H32a1,1,0,0,1,0-2h6a1,1,0,0,1,0,2Z"/><path class="cls-4" d="M38,90H32a1,1,0,0,1,0-2h6a1,1,0,0,1,0,2Z"/></g></g><rect class="cls-11" height="26" rx="8" ry="8" width="16" x="90" y="97"/><path class="cls-4" d="M98,124a9,9,0,0,1-9-9V105a9,9,0,0,1,18,0v10A9,9,0,0,1,98,124Zm0-26a7,7,0,0,0-7,7v10a7,7,0,0,0,14,0V105A7,7,0,0,0,98,98Z"/><path class="cls-4" d="M98,118a1.05,1.05,0,0,1-.71-.29.94.94,0,0,1-.21-.33.94.94,0,0,1,0-.76,1.15,1.15,0,0,1,.21-.33,1,1,0,0,1,.33-.21.93.93,0,0,1,.57-.06.61.61,0,0,1,.19.06.56.56,0,0,1,.17.09l.16.12a1,1,0,0,1,0,1.42,1,1,0,0,1-.16.12.56.56,0,0,1-.17.09.62.62,0,0,1-.19.06A.61.61,0,0,1,98,118Z"/><rect class="cls-16" height="26" rx="2" ry="2" width="59" x="23" y="97"/><path class="cls-11" d="M80,97H25a2,2,0,0,0-2,2v3a2,2,0,0,1,2-2H80a2,2,0,0,1,2,2V99A2,2,0,0,0,80,97Z"/><path class="cls-4" d="M80,124H25a3,3,0,0,1-3-3V99a3,3,0,0,1,3-3H80a3,3,0,0,1,3,3v22A3,3,0,0,1,80,124ZM25,98a1,1,0,0,0-1,1v22a1,1,0,0,0,1,1H80a1,1,0,0,0,1-1V99a1,1,0,0,0-1-1Z"/><rect class="cls-4" height="2" width="2" x="27" y="101"/><rect class="cls-4" height="2" width="4" x="27" y="105"/><rect class="cls-4" height="2" width="2" x="33" y="105"/><rect class="cls-4" height="2" width="2" x="45" y="105"/><rect class="cls-4" height="2" width="2" x="49" y="105"/><rect class="cls-4" height="2" width="2" x="53" y="105"/><rect class="cls-4" height="2" width="2" x="57" y="105"/><rect class="cls-4" height="2" width="2" x="61" y="105"/><rect class="cls-4" height="2" width="2" x="65" y="105"/><rect class="cls-4" height="2" width="2" x="69" y="105"/><rect class="cls-4" height="2" width="5" x="73" y="105"/><rect class="cls-4" height="2" width="5" x="27" y="109"/><rect class="cls-4" height="2" width="2" x="34" y="109"/><rect class="cls-4" height="2" width="2" x="46" y="109"/><rect class="cls-4" height="2" width="2" x="50" y="109"/><rect class="cls-4" height="2" width="2" x="54" y="109"/><rect class="cls-4" height="2" width="2" x="58" y="109"/><rect class="cls-4" height="2" width="2" x="62" y="109"/><rect class="cls-4" height="2" width="2" x="66" y="109"/><rect class="cls-4" height="2" width="2" x="70" y="109"/><rect class="cls-4" height="2" width="4" x="74" y="109"/><rect class="cls-4" height="2" width="3" x="27" y="113"/><rect class="cls-4" height="2" width="2" x="32" y="113"/><rect class="cls-4" height="2" width="2" x="44" y="113"/><rect class="cls-4" height="2" width="2" x="48" y="113"/><rect class="cls-4" height="2" width="2" x="52" y="113"/><rect class="cls-4" height="2" width="2" x="56" y="113"/><rect class="cls-4" height="2" width="2" x="60" y="113"/><rect class="cls-4" height="2" width="2" x="64" y="113"/><rect class="cls-4" height="2" width="2" x="68" y="113"/><rect class="cls-4" height="2" width="6" x="72" y="113"/><rect class="cls-4" height="2" width="4" x="27" y="117"/><rect class="cls-4" height="2" width="22" x="41" y="117"/><rect class="cls-4" height="2" width="3" x="65" y="117"/><rect class="cls-4" height="2" width="3" x="70" y="117"/><rect class="cls-4" height="2" width="3" x="75" y="117"/><rect class="cls-4" height="2" width="2" x="47" y="101"/><rect class="cls-4" height="2" width="2" x="43" y="101"/><rect class="cls-4" height="2" width="2" x="41" y="105"/><rect class="cls-4" height="2" width="2" x="42" y="109"/><rect class="cls-4" height="2" width="2" x="40" y="113"/><rect class="cls-4" height="2" width="2" x="37" y="117"/><rect class="cls-4" height="2" width="2" x="39" y="101"/><rect class="cls-4" height="2" width="2" x="37" y="105"/><rect class="cls-4" height="2" width="2" x="38" y="109"/><rect class="cls-4" height="2" width="2" x="36" y="113"/><rect class="cls-4" height="2" width="2" x="33" y="117"/><rect class="cls-4" height="2" width="2" x="35" y="101"/><rect class="cls-4" height="2" width="2" x="31" y="101"/><rect class="cls-4" height="2" width="2" x="51" y="101"/><rect class="cls-4" height="2" width="2" x="55" y="101"/><rect class="cls-4" height="2" width="2" x="59" y="101"/><rect class="cls-4" height="2" width="2" x="63" y="101"/><rect class="cls-4" height="2" width="2" x="67" y="101"/><rect class="cls-4" height="2" width="2" x="71" y="101"/><rect class="cls-4" height="2" width="3" x="75" y="101"/><rect class="cls-17" height="10" width="26" x="51" y="83"/><path class="cls-4" d="M77,94H51a1,1,0,0,1-1-1V83a1,1,0,0,1,1-1H77a1,1,0,0,1,1,1V93A1,1,0,0,1,77,94ZM52,92H76V84H52Z"/><g class="cls-1"><rect class="cls-18" height="4" width="24" x="52" y="83"/></g><path class="cls-4" d="M81,94H47a1,1,0,1,1,0-2H81a1,1,0,0,1,0,2Z"/><path class="cls-19" d="M25,16h79a4,4,0,0,1,4,4V74a0,0,0,0,1,0,0H21a0,0,0,0,1,0,0V20A4,4,0,0,1,25,16Z"/><rect class="cls-8" height="50" width="79" x="25" y="19.99"/><polygon class="cls-20" points="104 23.5 25 60 25 20 104 20 104 23.5"/><polygon class="cls-20" points="104 29.5 25 66 25 63 104 26.5 104 29.5"/><g class="cls-1"><rect class="cls-21" height="4" width="79" x="25" y="19.99"/></g><path class="cls-4" d="M104,71H25a1,1,0,0,1-1-1V20a1,1,0,0,1,1-1h79a1,1,0,0,1,1,1V70A1,1,0,0,1,104,71ZM26,69h77V21H26Z"/><path class="cls-4" d="M108,75H21a1,1,0,0,1-1-1V20a5,5,0,0,1,5-5h79a5,5,0,0,1,5,5V74A1,1,0,0,1,108,75ZM22,73h85V20a3,3,0,0,0-3-3H25a3,3,0,0,0-3,3Z"/><path class="cls-16" d="M21,74h87a0,0,0,0,1,0,0v5a4,4,0,0,1-4,4H25a4,4,0,0,1-4-4V74A0,0,0,0,1,21,74Z"/><path class="cls-4" d="M104,84H25a5,5,0,0,1-5-5V74a1,1,0,0,1,1-1h87a1,1,0,0,1,1,1v5A5,5,0,0,1,104,84ZM22,75v4a3,3,0,0,0,3,3h79a3,3,0,0,0,3-3V75Z"/></svg>