<?xml version="1.0" ?><svg data-name="017" id="_017" viewBox="0 0 128 128" xmlns="http://www.w3.org/2000/svg"><defs><style>.cls-1,.cls-16,.cls-20,.cls-22,.cls-27,.cls-30{opacity:0.3;}.cls-14,.cls-2{fill:#c7bff3;}.cls-3{fill:#def1ff;}.cls-4{fill:#6d6da8;}.cls-5{fill:#afefa6;}.cls-6{fill:#f0ecd3;}.cls-7{fill:#ff948a;}.cls-12,.cls-15,.cls-25,.cls-8{opacity:0.5;}.cls-9{fill:#d4b3ae;}.cls-10{fill:#633d3d;opacity:0.2;}.cls-11{fill:#ffd397;}.cls-12,.cls-15,.cls-26{fill:#fff;}.cls-13{fill:#fff0ca;}.cls-14,.cls-15,.cls-16{fill-rule:evenodd;}.cls-16{fill:#554dab;}.cls-17{fill:#919dc4;}.cls-18{fill:#ccd6ec;}.cls-19{fill:#c5e7ff;}.cls-20{fill:#0070b6;}.cls-21{fill:#ecf4ff;}.cls-22{fill:#768ea6;}.cls-23,.cls-25{fill:#6d6daa;}.cls-24{fill:#ced8ee;}.cls-27{fill:#7690a8;}.cls-28{fill:#c7e9ff;}.cls-29{fill:#b1f1a8;}.cls-30{fill:#48bc33;}.cls-31{fill:#fff27d;}.cls-32{fill:#ff99b1;}</style></defs><title/><g class="cls-1"><path class="cls-2" d="M1.81,45.69a30,30,0,0,1,23.51-25A19.67,19.67,0,0,0,36.26,14.1a37,37,0,0,1,64.32,15.68A19.6,19.6,0,0,0,111,43,28,28,0,1,1,73.34,80.29,9.4,9.4,0,0,0,64.83,75H64a12.4,12.4,0,0,0-12,9.74,20.68,20.68,0,0,1-2,5.11A20,20,0,0,1,12.53,81,21.44,21.44,0,0,0,8,68.65,29.93,29.93,0,0,1,1.81,45.69Z"/><rect class="cls-3" height="21" width="6" x="57" y="6"/><path class="cls-4" d="M63,28H57a1,1,0,0,1-1-1V6a1,1,0,0,1,1-1h6a1,1,0,0,1,1,1V27A1,1,0,0,1,63,28Zm-5-2h4V7H58Z"/><rect class="cls-5" height="21" width="6" x="45" y="6"/><path class="cls-4" d="M51,28H45a1,1,0,0,1-1-1V6a1,1,0,0,1,1-1h6a1,1,0,0,1,1,1V27A1,1,0,0,1,51,28Zm-5-2h4V7H46Z"/><rect class="cls-5" height="21" width="6" x="51" y="6"/><path class="cls-4" d="M57,28H51a1,1,0,0,1-1-1V6a1,1,0,0,1,1-1h6a1,1,0,0,1,1,1V27A1,1,0,0,1,57,28Zm-5-2h4V7H52Z"/><rect class="cls-6" height="21" transform="translate(84 33) rotate(180)" width="6" x="39" y="6"/><path class="cls-4" d="M45,28H39a1,1,0,0,1-1-1V6a1,1,0,0,1,1-1h6a1,1,0,0,1,1,1V27A1,1,0,0,1,45,28Zm-5-2h4V7H40Z"/><rect class="cls-3" height="21" transform="translate(72 33) rotate(180)" width="6" x="33" y="6"/><path class="cls-4" d="M39,28H33a1,1,0,0,1-1-1V6a1,1,0,0,1,1-1h6a1,1,0,0,1,1,1V27A1,1,0,0,1,39,28Zm-5-2h4V7H34Z"/><rect class="cls-2" height="12" width="15" x="12" y="15"/><path class="cls-4" d="M27,28H12a1,1,0,0,1-1-1V15a1,1,0,0,1,1-1H27a1,1,0,0,1,1,1V27A1,1,0,0,1,27,28ZM13,26H26V16H13Z"/><rect class="cls-2" height="5" width="17" x="11" y="10"/><path class="cls-4" d="M28,16H11a1,1,0,0,1-1-1V10a1,1,0,0,1,1-1H28a1,1,0,0,1,1,1v5A1,1,0,0,1,28,16ZM12,14H27V11H12Z"/><path class="cls-4" d="M22,20H17a1,1,0,0,1,0-2h5a1,1,0,0,1,0,2Z"/><rect class="cls-2" height="21" width="6" x="85" y="6"/><path class="cls-4" d="M91,28H85a1,1,0,0,1-1-1V6a1,1,0,0,1,1-1h6a1,1,0,0,1,1,1V27A1,1,0,0,1,91,28Zm-5-2h4V7H86Z"/><rect class="cls-2" height="21" width="6" x="91" y="6"/><path class="cls-4" d="M97,28H91a1,1,0,0,1-1-1V6a1,1,0,0,1,1-1h6a1,1,0,0,1,1,1V27A1,1,0,0,1,97,28Zm-5-2h4V7H92Z"/><rect class="cls-7" height="21" transform="translate(164 33) rotate(180)" width="6" x="79" y="6"/><path class="cls-4" d="M85,28H79a1,1,0,0,1-1-1V6a1,1,0,0,1,1-1h6a1,1,0,0,1,1,1V27A1,1,0,0,1,85,28Zm-5-2h4V7H80Z"/><rect class="cls-3" height="21" transform="translate(152 33) rotate(180)" width="6" x="73" y="6"/><path class="cls-4" d="M79,28H73a1,1,0,0,1-1-1V6a1,1,0,0,1,1-1h6a1,1,0,0,1,1,1V27A1,1,0,0,1,79,28Zm-5-2h4V7H74Z"/><rect class="cls-3" height="21" transform="translate(0.18 33.32) rotate(-18.37)" width="6" x="100.16" y="5.59"/><path class="cls-4" d="M103.62,28a1,1,0,0,1-1-.68L96.05,7.39a1,1,0,0,1,.64-1.27l5.69-1.89a1,1,0,0,1,1.26.64l6.62,19.93a1,1,0,0,1-.63,1.26L103.93,28A.84.84,0,0,1,103.62,28ZM98.26,7.71l6,18,3.8-1.26-6-18Z"/><g class="cls-8"><path class="cls-4" d="M57,11H51a1,1,0,0,1,0-2h6a1,1,0,0,1,0,2Z"/><path class="cls-4" d="M57,24H51a1,1,0,0,1,0-2h6a1,1,0,0,1,0,2Z"/><path class="cls-4" d="M63,11H57a1,1,0,0,1,0-2h6a1,1,0,0,1,0,2Z"/><path class="cls-4" d="M63,24H57a1,1,0,0,1,0-2h6a1,1,0,0,1,0,2Z"/><path class="cls-4" d="M51,11H45a1,1,0,0,1,0-2h6a1,1,0,0,1,0,2Z"/><path class="cls-4" d="M51,24H45a1,1,0,0,1,0-2h6a1,1,0,0,1,0,2Z"/><path class="cls-4" d="M39,11H33a1,1,0,0,1,0-2h6a1,1,0,0,1,0,2Z"/><path class="cls-4" d="M39,24H33a1,1,0,0,1,0-2h6a1,1,0,0,1,0,2Z"/><path class="cls-4" d="M45,11H39a1,1,0,0,1,0-2h6a1,1,0,0,1,0,2Z"/><path class="cls-4" d="M45,24H39a1,1,0,0,1,0-2h6a1,1,0,0,1,0,2Z"/><path class="cls-4" d="M97,11H91a1,1,0,0,1,0-2h6a1,1,0,0,1,0,2Z"/><path class="cls-4" d="M97,24H91a1,1,0,0,1,0-2h6a1,1,0,0,1,0,2Z"/><path class="cls-4" d="M98.26,11.87A1,1,0,0,1,98,9.92L103.64,8a1,1,0,0,1,1.26.63,1,1,0,0,1-.63,1.27l-5.69,1.89A1.25,1.25,0,0,1,98.26,11.87Z"/><path class="cls-4" d="M102.36,24.21a1,1,0,0,1-1-.69,1,1,0,0,1,.63-1.26l5.7-1.89A1,1,0,0,1,109,21a1,1,0,0,1-.63,1.27l-5.7,1.89A1.12,1.12,0,0,1,102.36,24.21Z"/><path class="cls-4" d="M91,11H85a1,1,0,0,1,0-2h6a1,1,0,0,1,0,2Z"/><path class="cls-4" d="M91,24H85a1,1,0,0,1,0-2h6a1,1,0,0,1,0,2Z"/><path class="cls-4" d="M79,11H73a1,1,0,0,1,0-2h6a1,1,0,0,1,0,2Z"/><path class="cls-4" d="M79,24H73a1,1,0,0,1,0-2h6a1,1,0,0,1,0,2Z"/><path class="cls-4" d="M85,11H79a1,1,0,0,1,0-2h6a1,1,0,0,1,0,2Z"/><path class="cls-4" d="M85,24H79a1,1,0,0,1,0-2h6a1,1,0,0,1,0,2Z"/></g><path class="cls-4" d="M8,28H7a1,1,0,0,1,0-2H8a1,1,0,0,1,0,2Z"/><path class="cls-4" d="M119,28h-1a1,1,0,0,1,0-2h1a1,1,0,0,1,0,2Z"/><polygon class="cls-9" points="16 39 12 39 12 33 18 33 16 39"/><polygon class="cls-10" points="18 33 12 33 12 36 17 36 18 33"/><polygon class="cls-9" points="114 39 110 39 108 33 114 33 114 39"/><polygon class="cls-10" points="108 33 109 36 114 36 114 33 108 33"/><rect class="cls-11" height="6" width="110" x="8" y="27"/><rect class="cls-10" height="6" width="3" x="115" y="27"/><rect class="cls-12" height="6" width="3" x="8" y="27"/><path class="cls-4" d="M16,40H12a1,1,0,0,1-1-1V33a1,1,0,0,1,1-1h6a1,1,0,0,1,.81.42,1,1,0,0,1,.14.9l-2,6A1,1,0,0,1,16,40Zm-3-2h2.28l1.33-4H13Z"/><path class="cls-4" d="M114,40h-4a1,1,0,0,1-1-.68l-2-6a1,1,0,0,1,.14-.9A1,1,0,0,1,108,32h6a1,1,0,0,1,1,1v6A1,1,0,0,1,114,40Zm-3.28-2H113V34h-3.61Z"/><path class="cls-4" d="M118,34H8a1,1,0,0,1-1-1V27a1,1,0,0,1,1-1H118a1,1,0,0,1,1,1v6A1,1,0,0,1,118,34ZM9,32H117V28H9Z"/><rect class="cls-6" height="21" width="6" x="4.01" y="84"/><path class="cls-4" d="M10,106H4a1,1,0,0,1-1-1V84a1,1,0,0,1,1-1h6a1,1,0,0,1,1,1v21A1,1,0,0,1,10,106Zm-5-2H9V85H5Z"/><rect class="cls-3" height="21" width="6" x="22.01" y="84"/><path class="cls-4" d="M28,106H22a1,1,0,0,1-1-1V84a1,1,0,0,1,1-1h6a1,1,0,0,1,1,1v21A1,1,0,0,1,28,106Zm-5-2h4V85H23Z"/><rect class="cls-7" height="21" width="6" x="28.01" y="84"/><path class="cls-4" d="M34,106H28a1,1,0,0,1-1-1V84a1,1,0,0,1,1-1h6a1,1,0,0,1,1,1v21A1,1,0,0,1,34,106Zm-5-2h4V85H29Z"/><rect class="cls-3" height="21" width="6" x="16.01" y="84"/><path class="cls-4" d="M22,106H16a1,1,0,0,1-1-1V84a1,1,0,0,1,1-1h6a1,1,0,0,1,1,1v21A1,1,0,0,1,22,106Zm-5-2h4V85H17Z"/><rect class="cls-7" height="21" width="6" x="10.01" y="84"/><path class="cls-4" d="M16,106H10a1,1,0,0,1-1-1V84a1,1,0,0,1,1-1h6a1,1,0,0,1,1,1v21A1,1,0,0,1,16,106Zm-5-2h4V85H11Z"/><rect class="cls-13" height="21" width="6" x="34.01" y="84"/><path class="cls-4" d="M40,106H34a1,1,0,0,1-1-1V84a1,1,0,0,1,1-1h6a1,1,0,0,1,1,1v21A1,1,0,0,1,40,106Zm-5-2h4V85H35Z"/><path class="cls-4" d="M122,106H3a1,1,0,0,1,0-2H122a1,1,0,0,1,0,2Z"/><path class="cls-4" d="M126,106h-1a1,1,0,0,1,0-2h1a1,1,0,0,1,0,2Z"/><g class="cls-8"><path class="cls-4" d="M16,89H10a1,1,0,0,1,0-2h6a1,1,0,0,1,0,2Z"/><path class="cls-4" d="M16,102H10a1,1,0,0,1,0-2h6a1,1,0,0,1,0,2Z"/><path class="cls-4" d="M22,89H16a1,1,0,0,1,0-2h6a1,1,0,0,1,0,2Z"/><path class="cls-4" d="M22,102H16a1,1,0,0,1,0-2h6a1,1,0,0,1,0,2Z"/><path class="cls-4" d="M10,89H4a1,1,0,0,1,0-2h6a1,1,0,0,1,0,2Z"/><path class="cls-4" d="M10,102H4a1,1,0,0,1,0-2h6a1,1,0,0,1,0,2Z"/><path class="cls-4" d="M34,89H28a1,1,0,0,1,0-2h6a1,1,0,0,1,0,2Z"/><path class="cls-4" d="M34,102H28a1,1,0,0,1,0-2h6a1,1,0,0,1,0,2Z"/><path class="cls-4" d="M40,89H34a1,1,0,0,1,0-2h6a1,1,0,0,1,0,2Z"/><path class="cls-4" d="M40,102H34a1,1,0,0,1,0-2h6a1,1,0,0,1,0,2Z"/><path class="cls-4" d="M28,89H22a1,1,0,0,1,0-2h6a1,1,0,0,1,0,2Z"/><path class="cls-4" d="M28,102H22a1,1,0,0,1,0-2h6a1,1,0,0,1,0,2Z"/></g><path class="cls-4" d="M122,126H4a1,1,0,0,1,0-2H122a1,1,0,0,1,0,2Z"/><path class="cls-4" d="M126,126h-1a1,1,0,1,1,0-2h1a1,1,0,0,1,0,2Z"/><path class="cls-4" d="M1.06,126H1a1,1,0,0,1,0-2,1,1,0,0,1,1,1A1,1,0,0,1,1.06,126Z"/><path class="cls-5" d="M106.37,69c0-4.35,3.63-6.24,3.63-6a7,7,0,0,1,3.63,6.19A6.33,6.33,0,0,1,109.82,75,6.66,6.66,0,0,1,106.37,69Z"/><path class="cls-4" d="M109.82,76a.91.91,0,0,1-.43-.1,7.61,7.61,0,0,1-4-6.93h0a7.86,7.86,0,0,1,3.69-6.68,1.45,1.45,0,0,1,1.44-.14l.1.07a8,8,0,0,1,4,7,7.28,7.28,0,0,1-4.45,6.7A.92.92,0,0,1,109.82,76Zm.07-11.88A5.88,5.88,0,0,0,107.37,69a5.67,5.67,0,0,0,2.5,4.88,5.28,5.28,0,0,0,2.76-4.67A6,6,0,0,0,109.89,64.12Z"/><path class="cls-5" d="M103,74c-2.41-3.62-.52-7.2-.36-7a7,7,0,0,1,6.49,3.06,6.33,6.33,0,0,1,.12,6.92A6.66,6.66,0,0,1,103,74Z"/><path class="cls-4" d="M108.61,78a7.6,7.6,0,0,1-6.45-3.51h0a7.84,7.84,0,0,1-.72-7.59,1.4,1.4,0,0,1,1.1-.93h.12A8,8,0,0,1,110,69.52a7.31,7.31,0,0,1,.11,8,1,1,0,0,1-.67.42A4.9,4.9,0,0,1,108.61,78Zm-4.79-4.62A5.66,5.66,0,0,0,108.64,76a5.3,5.3,0,0,0-.36-5.41A6,6,0,0,0,103.15,68a5.86,5.86,0,0,0,.67,5.43Z"/><path class="cls-5" d="M99.2,78.25c-2.75-3.36-1.22-7.11-1-6.89a7.07,7.07,0,0,1,6.76,2.41,6.33,6.33,0,0,1,.79,6.88A6.63,6.63,0,0,1,99.2,78.25Z"/><path class="cls-4" d="M104.43,81.78a7.58,7.58,0,0,1-6-2.89h0A7.87,7.87,0,0,1,97,71.4a1.42,1.42,0,0,1,1-1h.12a8,8,0,0,1,7.59,2.79,7.29,7.29,0,0,1,.89,8,1,1,0,0,1-.62.48A6.53,6.53,0,0,1,104.43,81.78ZM100,77.62a5.71,5.71,0,0,0,5,2.14,5.28,5.28,0,0,0-.88-5.35,6,6,0,0,0-5.36-2.14A5.87,5.87,0,0,0,100,77.62Z"/><path class="cls-5" d="M117,74c2.41-3.62.52-7.2.36-7a7,7,0,0,0-6.49,3.06,6.33,6.33,0,0,0-.12,6.92A6.66,6.66,0,0,0,117,74Z"/><path class="cls-4" d="M111.39,78a4.9,4.9,0,0,1-.78-.05,1,1,0,0,1-.67-.42,7.31,7.31,0,0,1,.11-8A8,8,0,0,1,117.34,66h.12a1.43,1.43,0,0,1,1.11.93,7.87,7.87,0,0,1-.73,7.59A7.6,7.6,0,0,1,111.39,78Zm0-2h0a5.65,5.65,0,0,0,4.77-2.62h0a5.88,5.88,0,0,0,.67-5.44,6,6,0,0,0-5.13,2.65A5.3,5.3,0,0,0,111.36,76Z"/><path class="cls-5" d="M120.83,78.22c2.71-3.4,1.13-7.13,1-6.91a7,7,0,0,0-6.72,2.5,6.33,6.33,0,0,0-.71,6.89A6.64,6.64,0,0,0,120.83,78.22Z"/><path class="cls-4" d="M115.54,81.82a6.08,6.08,0,0,1-1.43-.15,1,1,0,0,1-.63-.47,7.31,7.31,0,0,1,.8-8,8,8,0,0,1,7.55-2.88H122a1.43,1.43,0,0,1,1,1,7.87,7.87,0,0,1-1.37,7.5h0A7.6,7.6,0,0,1,115.54,81.82Zm-.51-2a5.69,5.69,0,0,0,5-2.2h0a5.9,5.9,0,0,0,1.13-5.37,6,6,0,0,0-5.34,2.2A5.31,5.31,0,0,0,115,79.8Zm5.8-1.58h0Z"/><path class="cls-5" d="M106.37,74c0-4.35,3.63-6.24,3.63-6a7,7,0,0,1,3.63,6.19A6.33,6.33,0,0,1,109.82,80,6.66,6.66,0,0,1,106.37,74Z"/><path class="cls-4" d="M109.82,81a.91.91,0,0,1-.43-.1,7.61,7.61,0,0,1-4-6.93h0a7.86,7.86,0,0,1,3.69-6.68,1.45,1.45,0,0,1,1.44-.14l.1.07a8,8,0,0,1,4,7,7.28,7.28,0,0,1-4.45,6.7A.92.92,0,0,1,109.82,81Zm.07-11.88A5.88,5.88,0,0,0,107.37,74a5.67,5.67,0,0,0,2.5,4.88,5.28,5.28,0,0,0,2.76-4.67A6,6,0,0,0,109.89,69.12Z"/><path class="cls-5" d="M97.91,84.9c-3.55-2.49-3.09-6.52-2.86-6.35a7.06,7.06,0,0,1,7.16.49,6.34,6.34,0,0,1,2.62,6.42A6.66,6.66,0,0,1,97.91,84.9Z"/><path class="cls-4" d="M101.8,87.18a7.63,7.63,0,0,1-4.46-1.46h0c-3.65-2.55-3.78-6.84-3.15-7.73a1,1,0,0,1,.44-.35,8,8,0,0,1,8.15.59,7.27,7.27,0,0,1,3,7.46,1,1,0,0,1-.47.63A7.5,7.5,0,0,1,101.8,87.18Zm-3.31-3.1a5.66,5.66,0,0,0,5.43.7,5.29,5.29,0,0,0-2.29-4.92,6,6,0,0,0-5.74-.6,5.89,5.89,0,0,0,2.6,4.82Z"/><path class="cls-5" d="M122,84.9c3.56-2.49,3.1-6.52,2.86-6.35a7,7,0,0,0-7.15.49,6.36,6.36,0,0,0-2.63,6.42A6.66,6.66,0,0,0,122,84.9Z"/><path class="cls-4" d="M118.1,87.18a7.57,7.57,0,0,1-3.54-.86,1.07,1.07,0,0,1-.47-.63,7.31,7.31,0,0,1,3-7.46,8,8,0,0,1,8.16-.59,1,1,0,0,1,.44.35c.62.89.49,5.18-3.15,7.73h0A7.65,7.65,0,0,1,118.1,87.18ZM116,84.78a5.68,5.68,0,0,0,5.44-.7A5.85,5.85,0,0,0,124,79.26a6,6,0,0,0-5.74.6A5.32,5.32,0,0,0,116,84.78Zm6,.12h0Z"/><path class="cls-5" d="M102,83c-2.41-3.62-.52-7.2-.36-7a7,7,0,0,1,6.49,3.06,6.33,6.33,0,0,1,.12,6.92A6.66,6.66,0,0,1,102,83Z"/><path class="cls-4" d="M107.61,87a7.6,7.6,0,0,1-6.45-3.51h0a7.84,7.84,0,0,1-.72-7.59,1.4,1.4,0,0,1,1.1-.93h.12A8,8,0,0,1,109,78.52a7.31,7.31,0,0,1,.11,8,1,1,0,0,1-.67.42A4.9,4.9,0,0,1,107.61,87Zm-4.79-4.62A5.69,5.69,0,0,0,107.64,85a5.3,5.3,0,0,0-.36-5.41A5.94,5.94,0,0,0,102.15,77a5.86,5.86,0,0,0,.67,5.43Z"/><path class="cls-5" d="M118,83c2.41-3.62.52-7.2.36-7a7,7,0,0,0-6.49,3.06,6.33,6.33,0,0,0-.12,6.92A6.66,6.66,0,0,0,118,83Z"/><path class="cls-4" d="M112.39,87a4.9,4.9,0,0,1-.78-.05,1,1,0,0,1-.67-.42,7.31,7.31,0,0,1,.11-8A8,8,0,0,1,118.34,75h.12a1.43,1.43,0,0,1,1.11.93,7.87,7.87,0,0,1-.73,7.59A7.6,7.6,0,0,1,112.39,87Zm0-2a5.56,5.56,0,0,0,4.82-2.62h0a5.88,5.88,0,0,0,.67-5.44,6,6,0,0,0-5.13,2.65A5.3,5.3,0,0,0,112.36,85Z"/><path class="cls-5" d="M106.37,80c0-4.35,3.63-6.24,3.63-6a7,7,0,0,1,3.63,6.19A6.33,6.33,0,0,1,109.82,86,6.66,6.66,0,0,1,106.37,80Z"/><path class="cls-4" d="M109.82,87a.91.91,0,0,1-.43-.1,7.61,7.61,0,0,1-4-6.93h0a7.86,7.86,0,0,1,3.69-6.68,1.45,1.45,0,0,1,1.44-.14l.1.07a8,8,0,0,1,4,7,7.28,7.28,0,0,1-4.45,6.7A.92.92,0,0,1,109.82,87Zm.07-11.88A5.88,5.88,0,0,0,107.37,80a5.67,5.67,0,0,0,2.5,4.88,5.28,5.28,0,0,0,2.76-4.67A6,6,0,0,0,109.89,75.12Z"/><path class="cls-14" d="M118.85,105h-17.7a2,2,0,0,1-2-1.62L97,92h26l-2.19,11.38A2,2,0,0,1,118.85,105Z"/><polygon class="cls-15" points="106 105 103 105 101 92 104 92 106 105"/><polygon class="cls-16" points="122.42 95 123 92 97 92 97.58 95 122.42 95"/><rect class="cls-2" height="8" width="30" x="95" y="84"/><rect class="cls-12" height="8" width="3" x="100" y="84"/><path class="cls-4" d="M118.85,106h-17.7a3,3,0,0,1-2.94-2.43L96,92.19a1,1,0,0,1,.21-.82A1,1,0,0,1,97,91h26a1,1,0,0,1,.77.37,1,1,0,0,1,.21.82l-2.19,11.38A3,3,0,0,1,118.85,106ZM98.21,93l2,10.19a1,1,0,0,0,1,.81h17.7a1,1,0,0,0,1-.81l2-10.19Z"/><path class="cls-4" d="M125,93H95a1,1,0,0,1-1-1V84a1,1,0,0,1,1-1h30a1,1,0,0,1,1,1v8A1,1,0,0,1,125,93ZM96,91h28V85H96Z"/></g><path class="cls-17" d="M18,56h90a3,3,0,0,1,3,3v62a0,0,0,0,1,0,0H15a0,0,0,0,1,0,0V59A3,3,0,0,1,18,56Z"/><path class="cls-4" d="M111,122H15a1,1,0,0,1-1-1V59a4,4,0,0,1,4-4h90a4,4,0,0,1,4,4v62A1,1,0,0,1,111,122Zm-95-2h94V59a2,2,0,0,0-2-2H18a2,2,0,0,0-2,2Z"/><path class="cls-18" d="M49,118H77a0,0,0,0,1,0,0v1a2,2,0,0,1-2,2H51a2,2,0,0,1-2-2v-1A0,0,0,0,1,49,118Z"/><path class="cls-4" d="M75,122H51a3,3,0,0,1-3-3v-1a1,1,0,0,1,1-1H77a1,1,0,0,1,1,1v1A3,3,0,0,1,75,122Zm-25-3a1,1,0,0,0,1,1H75a1,1,0,0,0,1-1Z"/><rect class="cls-3" height="54" width="88" x="19" y="60"/><polygon class="cls-19" points="106.95 62.44 107 60 19 60 19 104.22 106.95 62.44"/><polygon class="cls-19" points="106.72 68 19 109.67 19 106.67 106.75 64.99 106.72 68"/><rect class="cls-20" height="4" width="88.05" x="18.95" y="60"/><path class="cls-4" d="M107,115H19a1,1,0,0,1-1-1V60a1,1,0,0,1,1-1h88a1,1,0,0,1,1,1v54A1,1,0,0,1,107,115Zm-87-2h86V61H20Z"/><path class="cls-21" d="M119,118H77v1a2,2,0,0,1-2,2H51a2,2,0,0,1-2-2v-1H7v3a4,4,0,0,0,4,4H115a4,4,0,0,0,4-4Z"/><path class="cls-22" d="M115,122H11a4,4,0,0,1-4-4H7v3a4,4,0,0,0,4,4H115a4,4,0,0,0,4-4v-3A4,4,0,0,1,115,122Z"/><path class="cls-4" d="M115,126H11a5,5,0,0,1-5-5v-3a1,1,0,0,1,1-1H49a1,1,0,0,1,1,1v1a1,1,0,0,0,1,1H75a1,1,0,0,0,1-1v-1a1,1,0,0,1,1-1h42a1,1,0,0,1,1,1v3A5,5,0,0,1,115,126ZM8,119v2a3,3,0,0,0,3,3H115a3,3,0,0,0,3-3v-2H78a3,3,0,0,1-3,3H51a3,3,0,0,1-3-3Z"/><rect class="cls-11" height="46" rx="2" width="68" x="29" y="39"/><path class="cls-10" d="M95,82H31a2,2,0,0,1-2-2v3a2,2,0,0,0,2,2H95a2,2,0,0,0,2-2V80A2,2,0,0,1,95,82Z"/><path class="cls-12" d="M31,42H95a2,2,0,0,1,2,2V41a2,2,0,0,0-2-2H31a2,2,0,0,0-2,2v3A2,2,0,0,1,31,42Z"/><path class="cls-23" d="M95,86H31a3,3,0,0,1-3-3V41a3,3,0,0,1,3-3H95a3,3,0,0,1,3,3V83A3,3,0,0,1,95,86ZM31,40a1,1,0,0,0-1,1V83a1,1,0,0,0,1,1H95a1,1,0,0,0,1-1V41a1,1,0,0,0-1-1Z"/><rect class="cls-24" height="6" width="30" x="33" y="75"/><path class="cls-23" d="M63,82H33a1,1,0,0,1-1-1V75a1,1,0,0,1,1-1H63a1,1,0,0,1,1,1v6A1,1,0,0,1,63,82ZM34,80H62V76H34Z"/><path class="cls-25" d="M63,82a1,1,0,0,1-1-1,2,2,0,0,0-2-2H33a1,1,0,0,1,0-2H60a4,4,0,0,1,4,4A1,1,0,0,1,63,82Z"/><path class="cls-26" d="M57,35H33V75H57a6,6,0,0,1,6,6V40C63,36.69,60.31,35,57,35Z"/><path class="cls-27" d="M57,35H53c3.31,0,6,1.69,6,5V75.35A6,6,0,0,1,63,81V40C63,36.69,60.31,35,57,35Z"/><path class="cls-23" d="M63,82a1,1,0,0,1-1-1,5,5,0,0,0-5-5H33a1,1,0,0,1-1-1V35a1,1,0,0,1,1-1H57c4.19,0,7,2.41,7,6V81A1,1,0,0,1,63,82ZM34,74H57a7,7,0,0,1,5,2.11V40c0-3-2.58-4-5-4H34Z"/><rect class="cls-24" height="6" width="30" x="63" y="75"/><path class="cls-23" d="M93,82H63a1,1,0,0,1-1-1V75a1,1,0,0,1,1-1H93a1,1,0,0,1,1,1v6A1,1,0,0,1,93,82ZM64,80H92V76H64Z"/><path class="cls-26" d="M69,35H93V75H69a6,6,0,0,0-6,6V40C63,36.69,65.69,35,69,35Z"/><path class="cls-27" d="M69,35h4c-3.31,0-6,1.69-6,5V75.35A6,6,0,0,0,63,81V40C63,36.69,65.69,35,69,35Z"/><path class="cls-23" d="M63,82a1,1,0,0,1-1-1V40c0-3.59,2.81-6,7-6H93a1,1,0,0,1,1,1V75a1,1,0,0,1-1,1H69a5,5,0,0,0-5,5A1,1,0,0,1,63,82Zm6-46c-2.42,0-5,1-5,4V76.11A7,7,0,0,1,69,74H92V36Z"/><path class="cls-25" d="M63,82a1,1,0,0,1-1-1,4,4,0,0,1,4-4H93a1,1,0,0,1,0,2H66a2,2,0,0,0-2,2A1,1,0,0,1,63,82Z"/><g class="cls-8"><path class="cls-23" d="M50,44H48a1,1,0,0,1,0-2h2a1,1,0,0,1,0,2Z"/><path class="cls-23" d="M57,44H53a1,1,0,0,1,0-2h4a1,1,0,0,1,0,2Z"/><path class="cls-23" d="M53,47H48a1,1,0,0,1,0-2h5a1,1,0,0,1,0,2Z"/><path class="cls-23" d="M57,47H56a1,1,0,0,1,0-2h1a1,1,0,0,1,0,2Z"/><path class="cls-23" d="M51,50H48a1,1,0,0,1,0-2h3a1,1,0,0,1,0,2Z"/><path class="cls-23" d="M41,55H38a1,1,0,0,1,0-2h3a1,1,0,0,1,0,2Z"/><path class="cls-23" d="M57,55H55a1,1,0,0,1,0-2h2a1,1,0,0,1,0,2Z"/><path class="cls-23" d="M52,55H44a1,1,0,0,1,0-2h8a1,1,0,0,1,0,2Z"/><path class="cls-23" d="M46,58H38a1,1,0,0,1,0-2h8a1,1,0,0,1,0,2Z"/><path class="cls-23" d="M57,58H49a1,1,0,0,1,0-2h8a1,1,0,0,1,0,2Z"/><path class="cls-23" d="M40,61H38a1,1,0,0,1,0-2h2a1,1,0,0,1,0,2Z"/><path class="cls-23" d="M51,61H43a1,1,0,0,1,0-2h8a1,1,0,0,1,0,2Z"/><path class="cls-23" d="M50,66H38a1,1,0,0,1,0-2H50a1,1,0,0,1,0,2Z"/><path class="cls-23" d="M57,66H53a1,1,0,0,1,0-2h4a1,1,0,0,1,0,2Z"/><path class="cls-23" d="M44,69H38a1,1,0,0,1,0-2h6a1,1,0,0,1,0,2Z"/><path class="cls-23" d="M44,44H38a1,1,0,0,1,0-2h6a1,1,0,0,1,0,2Z"/><path class="cls-23" d="M42,50H40a1,1,0,0,1,0-2h2a1,1,0,0,1,0,2Z"/><path class="cls-23" d="M44,45a1,1,0,0,1-1-1V43a1,1,0,0,1,2,0v1A1,1,0,0,1,44,45Z"/><path class="cls-23" d="M38,45a1,1,0,0,1-1-1V43a1,1,0,0,1,2,0v1A1,1,0,0,1,38,45Z"/><path class="cls-23" d="M41,50a1,1,0,0,1-1-1V43a1,1,0,0,1,2,0v6A1,1,0,0,1,41,50Z"/></g><g class="cls-8"><path class="cls-23" d="M87,45H81a1,1,0,0,1,0-2h6a1,1,0,0,1,0,2Z"/><path class="cls-23" d="M82,48H81a1,1,0,0,1,0-2h1a1,1,0,0,1,0,2Z"/><path class="cls-23" d="M87,48H85a1,1,0,0,1,0-2h2a1,1,0,0,1,0,2Z"/><path class="cls-23" d="M84,51H81a1,1,0,0,1,0-2h3a1,1,0,0,1,0,2Z"/><path class="cls-23" d="M77,58H73a1,1,0,0,1,0-2h4a1,1,0,0,1,0,2Z"/><path class="cls-23" d="M87,58H80a1,1,0,0,1,0-2h7a1,1,0,0,1,0,2Z"/><path class="cls-23" d="M81,61H73a1,1,0,0,1,0-2h8a1,1,0,0,1,0,2Z"/><path class="cls-23" d="M69,58a.84.84,0,0,1-.38-.08.93.93,0,0,1-.33-.21A1,1,0,0,1,68,57a1.05,1.05,0,0,1,.29-.71.93.93,0,0,1,.33-.21,1,1,0,0,1,1.09.21A1,1,0,0,1,69,58Z"/><path class="cls-23" d="M74,66H73a1,1,0,0,1,0-2h1a1,1,0,0,1,0,2Z"/><path class="cls-23" d="M87,66H77a1,1,0,0,1,0-2H87a1,1,0,0,1,0,2Z"/><path class="cls-23" d="M85,69H73a1,1,0,0,1,0-2H85a1,1,0,0,1,0,2Z"/><path class="cls-23" d="M69,66a1.05,1.05,0,0,1-.71-.29,1.15,1.15,0,0,1-.21-.33A1,1,0,0,1,68,65a1,1,0,1,1,2,0,.84.84,0,0,1-.08.38,1.15,1.15,0,0,1-.21.33A1.05,1.05,0,0,1,69,66Z"/></g><rect class="cls-28" height="10" width="10" x="68" y="42"/><polygon class="cls-29" points="78 52 68 52 70.69 48.07 72.33 49.27 74.61 46.25 78 52"/><polygon class="cls-30" points="68 52 70.69 48.07 72.33 49.27 70.28 52 68 52"/><circle class="cls-31" cx="70.75" cy="44.75" r="1.25"/><polygon class="cls-32" points="83 34 83 43 86 40 89 43 89 34 83 34"/><path class="cls-23" d="M89,44a1,1,0,0,1-.71-.29L86,41.41l-2.29,2.3a1,1,0,0,1-1.09.21A1,1,0,0,1,82,43V34a1,1,0,0,1,1-1h6a1,1,0,0,1,1,1v9a1,1,0,0,1-1,1Zm-3-5a1,1,0,0,1,.71.29L88,40.59V35H84v5.59l1.29-1.3A1,1,0,0,1,86,39Z"/></svg>