<?xml version="1.0" ?><svg data-name="009" height="128" id="_009" viewBox="0 0 128 128" width="128" xmlns="http://www.w3.org/2000/svg"><title/><g style="opacity:0.30000000000000004"><path d="M8.28793,41.2596a29.69088,29.69088,0,0,0,2.96568,33.86782,19.48638,19.48638,0,0,1,4.49781,11.78293,36.62931,36.62931,0,0,0,59.3881,27.35611A20.192,20.192,0,0,1,91.725,110.24038c15.58287,3.09983,32.96611-7.41215,33.89643-29.36864a16.43086,16.43086,0,0,0-1.93761-7.70563,20.366,20.366,0,0,1-1.13972-14.59062A28.192,28.192,0,0,0,99.95822,22.98195c-7.69545-1.24957-14.55237-5.40726-19.96283-11.02049a28.70063,28.70063,0,0,0-46.40505,7.23636A19.47569,19.47569,0,0,1,23.07949,28.4792,29.5243,29.5243,0,0,0,8.28793,41.2596Z" style="fill:#c9c1f5"/><circle cx="115.5" cy="111.5" r="4.5" style="fill:#96d7ff"/><path d="M115.5,109.7a4.485,4.485,0,0,1,4.28011,3.17928A4.44451,4.44451,0,0,0,120,111.5a4.5,4.5,0,0,0-9,0,4.44451,4.44451,0,0,0,.21989,1.37928A4.485,4.485,0,0,1,115.5,109.7Z" style="fill:#fff;opacity:0.5"/><path d="M115.5,117a5.5,5.5,0,1,1,5.5-5.5A5.50654,5.50654,0,0,1,115.5,117Zm0-9a3.5,3.5,0,1,0,3.5,3.5A3.50425,3.50425,0,0,0,115.5,108Z" style="fill:#6d6daa"/><circle cx="21.5" cy="12.5" r="3.5" style="fill:#96d7ff"/><path d="M21.5,11.1a3.48832,3.48832,0,0,1,3.329,2.47277A3.45684,3.45684,0,0,0,25,12.5a3.5,3.5,0,0,0-7,0,3.45684,3.45684,0,0,0,.171,1.07277A3.48832,3.48832,0,0,1,21.5,11.1Z" style="fill:#fff;opacity:0.5"/><path d="M21.5,17A4.5,4.5,0,1,1,26,12.5,4.50492,4.50492,0,0,1,21.5,17Zm0-7A2.5,2.5,0,1,0,24,12.5,2.50263,2.50263,0,0,0,21.5,10Z" style="fill:#6d6daa"/></g><path d="M17.92308,106.38462a5.54815,5.54815,0,0,0,3.69229,3.69233q2.76925.92306,0,1.84613a5.54815,5.54815,0,0,0-3.69229,3.69233q-.92306,2.76919-1.84616,0a5.54808,5.54808,0,0,0-3.69229-3.69233q-2.76925-.92306,0-1.84613a5.54808,5.54808,0,0,0,3.69229-3.69233Q17,103.61542,17.92308,106.38462Z" style="fill:#c9c1f5"/><path d="M97.61539,72.2564a3.69876,3.69876,0,0,0,2.46153,2.46155q1.84616.61538,0,1.23075a3.69876,3.69876,0,0,0-2.46153,2.46155q-.61538,1.84613-1.23078,0a3.69872,3.69872,0,0,0-2.46153-2.46155q-1.84616-.61538,0-1.23075a3.69872,3.69872,0,0,0,2.46153-2.46155Q97,70.41027,97.61539,72.2564Z" style="fill:#96d7ff"/><path d="M118.53847,20.30766a4.62346,4.62346,0,0,0,3.07691,3.07694q2.30771.76922,0,1.53844A4.62346,4.62346,0,0,0,118.53847,28Q117.76925,30.30765,117,28a4.6234,4.6234,0,0,0-3.07691-3.07694q-2.30771-.76922,0-1.53844A4.6234,4.6234,0,0,0,117,20.30766Q117.76927,18,118.53847,20.30766Z" style="fill:#96d7ff"/><path d="M99.61539,5.92306a3.69876,3.69876,0,0,0,2.46153,2.46155q1.84616.61538,0,1.23075a3.69876,3.69876,0,0,0-2.46153,2.46155q-.61538,1.84613-1.23078,0a3.69872,3.69872,0,0,0-2.46153-2.46155q-1.84616-.61538,0-1.23075a3.69872,3.69872,0,0,0,2.46153-2.46155Q99,4.07694,99.61539,5.92306Z" style="fill:#c9c1f5"/><circle cx="64" cy="64" r="42" style="fill:#c7e9ff"/><path d="M93.69812,34.2993A41.7968,41.7968,0,0,0,71.573,22.69072a38.70834,38.70834,0,1,1-49.51923,39.1767A42.00035,42.00035,0,1,0,93.69812,34.2993Z" style="fill:#0070b8;opacity:0.30000000000000004"/><circle cx="54.9467" cy="54.9467" r="24.98353" style="fill:#fff;opacity:0.5"/><g style="opacity:0.30000000000000004"><path d="M64,107c-8.88184,0-15.83984-18.8877-15.83984-43S55.11816,21,64,21,79.83984,39.8877,79.83984,64,72.88184,107,64,107Zm0-84c-7.502,0-13.83984,18.77588-13.83984,41S56.498,105,64,105,77.83984,86.22412,77.83984,64,71.502,23,64,23Z" style="fill:#6d6daa"/><path d="M64,107c-16.542,0-30-19.28955-30-43S47.458,21,64,21,94,40.28955,94,64,80.542,107,64,107Zm0-84C48.56055,23,36,41.39258,36,64s12.56055,41,28,41S92,86.60742,92,64,79.43945,23,64,23Z" style="fill:#6d6daa"/><path d="M64,107a.99974.99974,0,0,1-1-1V22a1,1,0,0,1,2,0v84A.99974.99974,0,0,1,64,107Z" style="fill:#6d6daa"/><path d="M106,65H22a1,1,0,0,1,0-2h84a1,1,0,0,1,0,2Z" style="fill:#6d6daa"/><path d="M90.71973,97.31982a.99447.99447,0,0,1-.52148-.14746C83.79688,93.25,74.248,91,64,91s-19.79687,2.25-26.19824,6.17236a.99989.99989,0,1,1-1.04492-1.70508C43.46387,91.35742,53.39355,89,64,89s20.53613,2.35742,27.24316,6.46729a1,1,0,0,1-.52344,1.85254Z" style="fill:#6d6daa"/><path d="M100.71973,84.32031a.9933.9933,0,0,1-.40625-.0874C91.42969,80.272,78.19434,78,64,78s-27.42969,2.272-36.31348,6.23291a.99978.99978,0,0,1-.81445-1.82617C36.00293,78.335,49.53516,76,64,76s27.99707,2.335,37.12793,6.40674a1.00025,1.00025,0,0,1-.4082,1.91357Z" style="fill:#6d6daa"/><path d="M64,39.31982c-10.60645,0-20.53613-2.35742-27.24316-6.46729a.99989.99989,0,1,1,1.04492-1.70508C44.20313,35.06982,53.752,37.31982,64,37.31982s19.79688-2.25,26.19824-6.17236a.99989.99989,0,1,1,1.04492,1.70508C84.53613,36.9624,74.60645,39.31982,64,39.31982Z" style="fill:#6d6daa"/><path d="M64,52.31982c-14.46484,0-27.99707-2.335-37.12793-6.40674a.99978.99978,0,0,1,.81445-1.82617C36.57031,48.04785,49.80566,50.31982,64,50.31982s27.42969-2.272,36.31348-6.23291a.99978.99978,0,1,1,.81445,1.82617C91.99707,49.98486,78.46484,52.31982,64,52.31982Z" style="fill:#6d6daa"/></g><path d="M64,107a43,43,0,1,1,43-43A43.0488,43.0488,0,0,1,64,107Zm0-84a41,41,0,1,0,41,41A41.04651,41.04651,0,0,0,64,23Z" style="fill:#6d6daa"/><path d="M9,65a.99974.99974,0,0,1-1-1A55.719,55.719,0,0,1,23.51563,25.30859a1.00014,1.00014,0,1,1,1.44531,1.38281A53.73,53.73,0,0,0,10,64,.99974.99974,0,0,1,9,65Z" style="fill:#6d6daa"/><path d="M64,120a55.72437,55.72437,0,0,1-38.69043-15.51416,1.00014,1.00014,0,0,1,1.38281-1.44531A53.73107,53.73107,0,0,0,64,118a1,1,0,0,1,0,2Z" style="fill:#6d6daa"/><path d="M104,102.74951a.99975.99975,0,0,1-.72656-1.68652A53.7607,53.7607,0,0,0,118,63.99951a1,1,0,1,1,2,0A55.7449,55.7449,0,0,1,104.72656,102.436.99424.99424,0,0,1,104,102.74951Z" style="fill:#6d6daa"/><path d="M101.999,25.23682a.99643.99643,0,0,1-.69141-.27734A53.73107,53.73107,0,0,0,64,10a1,1,0,0,1,0-2,55.72437,55.72437,0,0,1,38.69043,15.51416,1,1,0,0,1-.69141,1.72266Z" style="fill:#6d6daa"/><path d="M25,33a.99974.99974,0,0,1-1-1V26H18a1,1,0,0,1,0-2h7a.99974.99974,0,0,1,1,1v7A.99974.99974,0,0,1,25,33Z" style="fill:#6d6daa"/><path d="M110,104h-7a.99974.99974,0,0,1-1-1V96a1,1,0,0,1,2,0v6h6a1,1,0,0,1,0,2Z" style="fill:#6d6daa"/><path d="M25,111a.99974.99974,0,0,1-1-1v-7a.99974.99974,0,0,1,1-1h7a1,1,0,0,1,0,2H26v6A.99974.99974,0,0,1,25,111Z" style="fill:#6d6daa"/><path d="M103,26H96a1,1,0,0,1,0-2h6V18a1,1,0,0,1,2,0v7A.99974.99974,0,0,1,103,26Z" style="fill:#6d6daa"/><path d="M21.56934,100a.99706.99706,0,0,1-.77148-.36279c-.64551-.78125-1.2793-1.59082-1.88281-2.40723a1.00032,1.00032,0,0,1,1.60938-1.18848c.58105.78711,1.19238,1.56787,1.81445,2.32129A1.0003,1.0003,0,0,1,21.56934,100Zm-5.14355-7.37646a.9984.9984,0,0,1-.86523-.49707c-.50879-.874-1.001-1.77686-1.46289-2.68359a.99971.99971,0,1,1,1.78125-.9082c.44629.874.91992,1.74365,1.41016,2.58594a1,1,0,0,1-.86328,1.50293Zm-3.86523-8.11768a1.001,1.001,0,0,1-.93555-.647c-.35645-.94434-.69434-1.915-1.00293-2.88477a1.0002,1.0002,0,0,1,1.90625-.60645c.29785.93652.623,1.873.96777,2.78418a1.001,1.001,0,0,1-.93555,1.354Zm-2.48437-8.64209a1.00047,1.00047,0,0,1-.97949-.80273c-.2002-.99414-.374-2.00732-.51953-3.01123a1.00045,1.00045,0,0,1,1.98047-.28516c.13867.96777.30762,1.94385.5,2.90186a1.00086,1.00086,0,0,1-.7832,1.17773A1.01794,1.01794,0,0,1,10.07617,75.86377Zm-1.04395-8.9292a.9994.9994,0,0,1-.998-.96533Q7.999,64.98486,8,63.99854A1.03978,1.03978,0,0,1,9.002,63,1,1,0,0,1,10,64.00146q-.00146.94922.03223,1.89844a.99962.99962,0,0,1-.96387,1.03418Z" style="fill:#6d6daa"/><path d="M64,120a1,1,0,0,1,0-2q.58447,0,1.167-.0127a1.01378,1.01378,0,0,1,1.02051.979,1.00036,1.00036,0,0,1-.97949,1.021Q64.60449,119.99976,64,120Zm7.166-.46631a1.00012,1.00012,0,0,1-.12891-1.9917c.97266-.127,1.95215-.28223,2.90918-.46045a.99991.99991,0,1,1,.36719,1.96582c-.99316.18555-2.00879.34619-3.0166.478A1.08256,1.08256,0,0,1,71.166,119.53369Zm8.78906-1.88672a1.00016,1.00016,0,0,1-.28906-1.95752c.93359-.28271,1.875-.59521,2.7959-.9292a.99982.99982,0,1,1,.68164,1.87988c-.95508.34668-1.93066.67041-2.89941.96338A.98842.98842,0,0,1,79.95508,117.647Zm8.36523-3.29932a.99971.99971,0,0,1-.44238-1.897c.874-.43066,1.751-.89307,2.60449-1.37451a1,1,0,1,1,.98242,1.74219c-.88574.49951-1.7959.97949-2.7041,1.42627A.98686.98686,0,0,1,88.32031,114.34766Zm7.71094-4.62646a1,1,0,0,1-.584-1.8125c.79395-.56982,1.583-1.16992,2.3457-1.7832a1.00019,1.00019,0,0,1,1.25391,1.55859c-.791.63623-1.61035,1.2583-2.43359,1.84961A.99627.99627,0,0,1,96.03125,109.72119Z" style="fill:#6d6daa"/><path d="M119,64.99951h-.002A1,1,0,0,1,118,63.998q.00146-.94922-.03223-1.89844a.99962.99962,0,1,1,1.998-.06934q.03516.98438.03418,1.9707A1.00005,1.00005,0,0,1,119,64.99951Zm-.56934-7.90723a1.00091,1.00091,0,0,1-.98926-.85742c-.13867-.96777-.30762-1.94385-.5-2.90186a1.00012,1.00012,0,0,1,1.96094-.39453c.2002.99414.374,2.00732.51953,3.01123a1.00064,1.00064,0,0,1-.84766,1.13232A1.02423,1.02423,0,0,1,118.43066,57.09229ZM116.4248,48.3291a1.00173,1.00173,0,0,1-.95312-.69727c-.29785-.93652-.623-1.873-.96777-2.78418a1.00011,1.00011,0,0,1,1.87109-.707c.35645.94434.69434,1.915,1.00293,2.88477a1.00144,1.00144,0,0,1-.95312,1.30371Zm-3.41113-8.31836a.99929.99929,0,0,1-.8916-.5459c-.44629-.874-.91992-1.74365-1.41016-2.58594a.99994.99994,0,1,1,1.72852-1.00586c.50879.874,1.001,1.77686,1.46289,2.68359a.99954.99954,0,0,1-.88965,1.4541Zm-4.73242-7.64648a.99906.99906,0,0,1-.80566-.40576c-.58105-.78711-1.19238-1.56787-1.81445-2.32129a.99986.99986,0,0,1,1.541-1.27441c.64551.78125,1.2793,1.59082,1.88281,2.40723a1,1,0,0,1-.80371,1.59424Z" style="fill:#6d6daa"/><path d="M29.58105,22.0957a1.00019,1.00019,0,0,1-.62793-1.7793c.791-.63623,1.61035-1.2583,2.43359-1.84961a1,1,0,0,1,1.166,1.625c-.79395.56982-1.583,1.16992-2.3457,1.7832A.9963.9963,0,0,1,29.58105,22.0957Zm7.44629-5.043a1,1,0,0,1-.49219-1.87109c.88574-.49951,1.7959-.97949,2.7041-1.42627a.9997.9997,0,1,1,.88281,1.79395c-.874.43066-1.751.89307-2.60449,1.37451A.9976.9976,0,0,1,37.02734,17.05273Zm8.16895-3.752a1.00014,1.00014,0,0,1-.34082-1.94043c.95508-.34668,1.93066-.67041,2.89941-.96338A.99973.99973,0,1,1,48.333,12.311c-.93359.28271-1.875.59521-2.7959.9292A.99232.99232,0,0,1,45.19629,13.30078ZM53.86914,10.936a.99992.99992,0,0,1-.18262-1.98291c.99316-.18555,2.00879-.34619,3.0166-.478a1.00017,1.00017,0,0,1,.25977,1.9834c-.97266.127-1.95215.28223-2.90918.46045A.99887.99887,0,0,1,53.86914,10.936Zm8.94434-.92334a1.0001,1.0001,0,0,1-.02051-2Q63.39648,8.00024,64,8a1,1,0,0,1,0,2q-.583,0-1.166.0127Z" style="fill:#6d6daa"/></svg>