<?xml version="1.0" ?><svg data-name="019" id="_019" viewBox="0 0 128 128" xmlns="http://www.w3.org/2000/svg"><defs><style>.cls-1,.cls-10,.cls-15,.cls-23{opacity:0.3;}.cls-2{fill:#95bfff;}.cls-3{fill:#e0f3ff;}.cls-4{fill:#c7e9ff;}.cls-5{fill:#2c4b75;opacity:0.2;}.cls-11,.cls-6,.cls-9{fill:#fff;}.cls-17,.cls-22,.cls-6{opacity:0.5;}.cls-17,.cls-23,.cls-7{fill:#6d6daa;}.cls-8{fill:#d2ebff;}.cls-9{opacity:0.75;}.cls-10,.cls-20{fill:#5cbeff;}.cls-12{fill:#d6b5b0;}.cls-13{fill:#c1a29f;}.cls-14{fill:#c7bff3;}.cls-15{fill:#554dab;}.cls-16{fill:#939fc6;}.cls-18{fill:#0070b8;}.cls-18,.cls-27{opacity:0.3;}.cls-19{opacity:0.2;}.cls-21{fill:#eef6ff;}.cls-24{fill:#97c1ff;}.cls-25{fill:#87d9b8;}.cls-26{fill:#afefa6;}.cls-27{fill:#48ba33;}.cls-28{fill:#6d6da8;}</style></defs><title/><g class="cls-1"><path class="cls-2" d="M79.61,126.73c13.69-1.74,24.18-11.38,27-23.4a19.71,19.71,0,0,1,7.12-10.93,38.25,38.25,0,0,0,8.36-9c10.25-15.48,6.88-36-7.83-47.89A40.2,40.2,0,0,0,98,27.58a22.21,22.21,0,0,1-14.48-11.1c-7.69-14.33-28-21.67-47.29-8.87A16.8,16.8,0,0,0,31,14a21.54,21.54,0,0,1-11.73,10A29.35,29.35,0,0,0,1.34,42.19,27.22,27.22,0,0,0,5.26,66.67a19.25,19.25,0,0,1,3,16.76A27.79,27.79,0,0,0,12.9,108.5c7.29,9.5,19.52,13.64,31,11.56A22.52,22.52,0,0,1,59,122.73,33.47,33.47,0,0,0,79.61,126.73Z"/><rect class="cls-3" height="43.82" rx="2" transform="translate(-23.58 9.06) rotate(-14.43)" width="25.04" x="11.48" y="75.76"/><path class="cls-4" d="M27.64,74.11,9.45,78.79A3.13,3.13,0,0,0,7.19,82.6l4.68,18.16L33.24,83.31l-1.79-7A3.13,3.13,0,0,0,27.64,74.11Z"/><polygon class="cls-4" points="14.21 109.85 35.58 92.41 34.41 87.86 13.04 105.3 14.21 109.85"/><path class="cls-5" d="M40.81,112.74l-.39-1.52a3.25,3.25,0,0,1-2.33,2.33l-19,4.89a3.29,3.29,0,0,1-2.86-.63l.3,1.17a3.14,3.14,0,0,0,3.82,2.25l18.19-4.68A3.13,3.13,0,0,0,40.81,112.74Z"/><path class="cls-6" d="M10.1,82.2l18.37-4.72a3.16,3.16,0,0,1,3.85,2.27l-.87-3.39a3.13,3.13,0,0,0-3.81-2.25L9.45,78.79A3.13,3.13,0,0,0,7.19,82.6l.57,2.21A3.18,3.18,0,0,1,10.1,82.2Z"/><path class="cls-7" d="M18.77,122.57a3,3,0,0,1-2.9-2.25L5.94,81.75A3,3,0,0,1,8.1,78.1l20.38-5.24h0A3,3,0,0,1,32.13,75l9.93,38.57a3,3,0,0,1-2.16,3.66l-20.38,5.24A3.2,3.2,0,0,1,18.77,122.57ZM29.23,74.76a1.07,1.07,0,0,0-.25,0h0L8.6,80a1,1,0,0,0-.72,1.21l9.92,38.57a1,1,0,0,0,1.22.72L39.4,115.3a1,1,0,0,0,.72-1.22L30.2,75.51A1,1,0,0,0,29.23,74.76Zm-.5-.94h0Z"/><path class="cls-7" d="M15.51,79.79A2.58,2.58,0,0,1,13,77.87a1,1,0,0,1,.72-1.22,1,1,0,0,1,1.22.72.57.57,0,0,0,.69.4l6.06-1.56a.54.54,0,0,0,.35-.26.52.52,0,0,0,.06-.42,1,1,0,0,1,1.94-.5,2.57,2.57,0,0,1-1.85,3.12l-6.06,1.56A2.34,2.34,0,0,1,15.51,79.79Z"/><circle class="cls-8" cx="105.5" cy="18.5" r="14.5"/><path class="cls-9" d="M105.5,7a14.5,14.5,0,0,1,14.42,13,14.76,14.76,0,0,0,.08-1.5,14.5,14.5,0,0,0-29,0,14.76,14.76,0,0,0,.08,1.5A14.5,14.5,0,0,1,105.5,7Z"/><path class="cls-10" d="M119.5,18h-3.81a10.5,10.5,0,1,0,0,5h3.81a2.5,2.5,0,0,0,0-5Z"/><path class="cls-7" d="M105.5,34A15.5,15.5,0,1,1,121,18.5,15.51,15.51,0,0,1,105.5,34Zm0-29A13.5,13.5,0,1,0,119,18.5,13.52,13.52,0,0,0,105.5,5Z"/><path class="cls-11" d="M119.5,17h-4.63a9.5,9.5,0,1,0,0,3h4.63a1.5,1.5,0,0,0,0-3Z"/><path class="cls-7" d="M105.5,29a10.5,10.5,0,1,1,10.19-13h3.81a2.5,2.5,0,0,1,0,5h-3.81A10.45,10.45,0,0,1,105.5,29Zm0-19a8.5,8.5,0,1,0,8.38,9.84,1,1,0,0,1,1-.84h4.63a.5.5,0,0,0,0-1h-4.63a1,1,0,0,1-1-.84A8.45,8.45,0,0,0,105.5,10Z"/><circle class="cls-12" cx="105.5" cy="18.5" r="6.5"/><path class="cls-13" d="M104.81,22.39c-1,0-1.4-.78-1.61-1.65a2.86,2.86,0,0,0-.73-1.17c-1.47-1.71-1-3.51,1-4.43.39-.17.82-.27,1.22-.43a1.84,1.84,0,0,1,2.08.47c.43.69.55.9,1.29,1.07a2,2,0,0,1,1.58,2.52,1.43,1.43,0,0,1-1.31,1.13C105.23,19.78,106.38,22.39,104.81,22.39Z"/><path class="cls-14" d="M105.4,47.94,98.9,53.2l-6-7.43a2.39,2.39,0,0,1,.35-3.36L96,40.16a2.39,2.39,0,0,1,3.36.35Z"/><path class="cls-6" d="M96,40.16l-2.79,2.25a2.39,2.39,0,0,0-.35,3.36l2.25,2.79a2.39,2.39,0,0,1,.36-3.36l2.78-2.26a2.39,2.39,0,0,1,3.36.36l-2.25-2.79A2.39,2.39,0,0,0,96,40.16Z"/><path class="cls-14" d="M110.17,67.13l6.5-5.26,6,7.43a2.39,2.39,0,0,1-.35,3.36l-2.79,2.26a2.39,2.39,0,0,1-3.36-.36Z"/><path class="cls-15" d="M120.07,69.88l-2.78,2.25a2.39,2.39,0,0,1-3.36-.36l2.25,2.79a2.39,2.39,0,0,0,3.36.36l2.79-2.26a2.39,2.39,0,0,0,.35-3.36l-2.25-2.78A2.39,2.39,0,0,1,120.07,69.88Z"/><path class="cls-7" d="M113.45,53.19a1,1,0,0,1-.78-.37L111.16,51a1,1,0,0,1,.15-1.41l.93-.75a1,1,0,0,1,1.41.15l1.5,1.86a1,1,0,0,1-.15,1.4l-.93.76A1,1,0,0,1,113.45,53.19Z"/><rect class="cls-16" height="17.92" rx="3.58" transform="translate(-12.2 80.6) rotate(-38.97)" width="15.53" x="100.02" y="48.58"/><path class="cls-10" d="M114.42,59.09l-6.51,5.26a3.59,3.59,0,0,1-5-.54l2.26,2.79a3.58,3.58,0,0,0,5,.53l6.5-5.26a3.58,3.58,0,0,0,.53-5L115,54.05A3.6,3.6,0,0,1,114.42,59.09Z"/><rect class="cls-3" height="10.75" rx="1.19" transform="translate(-12.2 80.6) rotate(-38.97)" width="8.36" x="103.6" y="52.16"/><path class="cls-6" d="M109.18,47.5a3.57,3.57,0,0,0-3.78.44L98.9,53.2a3.58,3.58,0,0,0-.53,5L103,64Z"/><path class="cls-6" d="M110.83,49l-6.28,16.92.58.72a3.63,3.63,0,0,0,1,.86l6.18-16.65Z"/><path class="cls-7" d="M107.92,68.93a4.58,4.58,0,0,1-3.57-1.7l-6.76-8.36a4.59,4.59,0,0,1,.68-6.45l6.5-5.26a4.6,4.6,0,0,1,6.45.68L118,56.2a4.6,4.6,0,0,1-.68,6.45l-6.5,5.26A4.61,4.61,0,0,1,107.92,68.93Zm-.27-20.79a2.56,2.56,0,0,0-1.62.58L99.53,54a2.59,2.59,0,0,0-.39,3.63L105.91,66a2.58,2.58,0,0,0,3.63.38l6.5-5.26h0a2.56,2.56,0,0,0,.38-3.63l-6.76-8.36A2.59,2.59,0,0,0,107.65,48.14Z"/><path class="cls-7" d="M98.9,54.2h-.11a1,1,0,0,1-.67-.37l-6-7.43a3.39,3.39,0,0,1,.5-4.77l2.79-2.25a3.4,3.4,0,0,1,4.77.5l6,7.43a1,1,0,0,1-.15,1.41L99.53,54A1,1,0,0,1,98.9,54.2ZM97.53,40.63a1.39,1.39,0,0,0-.87.3l-2.79,2.26a1.36,1.36,0,0,0-.51.93,1.39,1.39,0,0,0,.3,1l5.39,6.65,4.94-4-5.38-6.65A1.38,1.38,0,0,0,97.53,40.63Z"/><path class="cls-7" d="M118,76.45l-.36,0a3.41,3.41,0,0,1-2.28-1.24l-6-7.43a1,1,0,0,1-.22-.73,1,1,0,0,1,.37-.68l6.5-5.26a1,1,0,0,1,1.41.15l6,7.43a3.41,3.41,0,0,1-.5,4.77l-2.79,2.25A3.33,3.33,0,0,1,118,76.45Zm-6.47-9.17L117,73.93a1.36,1.36,0,0,0,.93.51,1.39,1.39,0,0,0,1-.3l2.79-2.26a1.31,1.31,0,0,0,.5-.93,1.35,1.35,0,0,0-.3-1l-5.38-6.65Z"/><rect class="cls-11" height="34" transform="translate(-12 60) rotate(-90)" width="22" x="13" y="19"/><path class="cls-7" d="M41,48H7a1,1,0,0,1-1-1V25a1,1,0,0,1,1-1H41a1,1,0,0,1,1,1V47A1,1,0,0,1,41,48ZM8,46H40V26H8Z"/><path class="cls-17" d="M24,31H12a1,1,0,0,1,0-2H24a1,1,0,0,1,0,2Z"/><path class="cls-17" d="M19,35H12a1,1,0,0,1,0-2h7a1,1,0,0,1,0,2Z"/><path class="cls-7" d="M84,17.18a1,1,0,0,1-.5-.13l-6.81-3.89-40.79-4a1,1,0,1,1,.2-2l41,4a1,1,0,0,1,.4.12l7,4a1,1,0,0,1-.5,1.87Z"/><path class="cls-7" d="M29,17.18a1,1,0,0,1-.5-1.87l7-4a1,1,0,0,1,.4-.12l41-4a1,1,0,1,1,.2,2l-40.79,4L29.5,17.05A1,1,0,0,1,29,17.18Z"/><path class="cls-4" d="M37.12,6.09h0a2.87,2.87,0,0,0-2,3.09l.45,4.24a8.28,8.28,0,0,0,6.71,7.38h0a12.88,12.88,0,0,0,4.55,0h0a8.28,8.28,0,0,0,6.71-7.38L54,9.18a2.87,2.87,0,0,0-2-3.09h0A26,26,0,0,0,37.12,6.09Z"/><path class="cls-4" d="M60.39,6.09h0a2.87,2.87,0,0,0-2,3.09l.45,4.24a8.28,8.28,0,0,0,6.71,7.38h0a12.88,12.88,0,0,0,4.55,0h0a8.28,8.28,0,0,0,6.71-7.38l.45-4.24a2.87,2.87,0,0,0-2-3.09h0A26,26,0,0,0,60.39,6.09Z"/><path class="cls-3" d="M36.43,16.31,53.26,6.89A2.67,2.67,0,0,0,52,6.09h0c-.43-.13-.85-.23-1.28-.33l-15,8.4A8.23,8.23,0,0,0,36.43,16.31Z"/><path class="cls-3" d="M46.84,20.8a8.28,8.28,0,0,0,6.71-7.38l.43-4-16.11,9a8,8,0,0,0,4.42,2.4A12.88,12.88,0,0,0,46.84,20.8Z"/><path class="cls-3" d="M59.64,16.2l16.8-9.41a2.71,2.71,0,0,0-1.16-.7h0c-.49-.15-1-.27-1.47-.38L59,14A8.79,8.79,0,0,0,59.64,16.2Z"/><path class="cls-3" d="M70.11,20.8a8.28,8.28,0,0,0,6.71-7.38l.45-4.2L61,18.31a8,8,0,0,0,4.52,2.49A12.88,12.88,0,0,0,70.11,20.8Z"/><path class="cls-18" d="M58.67,11.77a2.82,2.82,0,0,1,1.72-1.5h0a26,26,0,0,1,14.89,0h0A2.82,2.82,0,0,1,77,11.77l.27-2.59a2.87,2.87,0,0,0-2-3.09h0a26,26,0,0,0-14.89,0h0a2.87,2.87,0,0,0-2,3.09Z"/><path class="cls-18" d="M35.41,11.77a2.77,2.77,0,0,1,1.71-1.5h0a26,26,0,0,1,14.89,0h0a2.79,2.79,0,0,1,1.72,1.5L54,9.18a2.88,2.88,0,0,0-2-3.09h0a26,26,0,0,0-14.89,0h0a2.87,2.87,0,0,0-2,3.09Z"/><path class="cls-7" d="M58.44,10.36H54a1,1,0,0,1,0-2h4.44a1,1,0,0,1,0,2Z"/><path class="cls-7" d="M44.56,22a14.48,14.48,0,0,1-2.45-.21,9.32,9.32,0,0,1-7.53-8.27l-.45-4.23a3.88,3.88,0,0,1,2.7-4.16h0a27,27,0,0,1,15.46,0A3.86,3.86,0,0,1,55,9.29l-.45,4.23A9.31,9.31,0,0,1,47,21.79,14.39,14.39,0,0,1,44.56,22ZM37.4,7.05a1.87,1.87,0,0,0-1.28,2l.45,4.23a7.32,7.32,0,0,0,5.89,6.51,12.4,12.4,0,0,0,4.21,0,7.32,7.32,0,0,0,5.88-6.51L53,9.08a1.89,1.89,0,0,0-1.29-2,24.94,24.94,0,0,0-14.32,0Zm-.28-1h0Z"/><path class="cls-7" d="M67.84,22a14.39,14.39,0,0,1-2.45-.21,9.33,9.33,0,0,1-7.54-8.27L57.4,9.29a3.88,3.88,0,0,1,2.7-4.16h0a27,27,0,0,1,15.47,0,3.88,3.88,0,0,1,2.7,4.16l-.45,4.23a9.33,9.33,0,0,1-7.54,8.27A14.36,14.36,0,0,1,67.84,22ZM60.68,7.05a1.87,1.87,0,0,0-1.29,2l.45,4.23a7.32,7.32,0,0,0,5.89,6.51,12.4,12.4,0,0,0,4.21,0,7.32,7.32,0,0,0,5.89-6.51l.45-4.23a1.87,1.87,0,0,0-1.28-2,24.94,24.94,0,0,0-14.32,0Zm-.29-1h0Z"/></g><polygon class="cls-11" points="28 109 28 39 36 31 88 31 88 109 28 109"/><g class="cls-19"><rect class="cls-20" height="3" width="60" x="28" y="106"/></g><path class="cls-7" d="M51,110H28a1,1,0,0,1-1-1V39a1,1,0,0,1,.29-.71l8-8A1,1,0,0,1,36,30H88a1,1,0,0,1,1,1V74.18a1,1,0,0,1-2,0V32H36.41L29,39.41V108H51a1,1,0,0,1,0,2Z"/><polygon class="cls-21" points="28 39 36 39 36 31 28 39"/><path class="cls-7" d="M36,40H28a1,1,0,0,1-.92-.62,1,1,0,0,1,.21-1.09l8-8a1,1,0,0,1,1.09-.21A1,1,0,0,1,37,31v8A1,1,0,0,1,36,40Zm-5.59-2H35V33.41Z"/><path class="cls-7" d="M36,40H28a1,1,0,0,1-.92-.62,1,1,0,0,1,.21-1.09l8-8a1,1,0,0,1,1.09-.21A1,1,0,0,1,37,31v8A1,1,0,0,1,36,40Zm-5.59-2H35V33.41Z"/><g class="cls-22"><path class="cls-7" d="M45,73H38a1,1,0,0,1,0-2h7a1,1,0,0,1,0,2Z"/><path class="cls-7" d="M41,77H38a1,1,0,0,1,0-2h3a1,1,0,0,1,0,2Z"/><path class="cls-7" d="M43,81H38a1,1,0,0,1,0-2h5a1,1,0,0,1,0,2Z"/><path class="cls-7" d="M40,85H38a1,1,0,0,1,0-2h2a1,1,0,0,1,0,2Z"/><path class="cls-7" d="M45,89H38a1,1,0,0,1,0-2h7a1,1,0,0,1,0,2Z"/><path class="cls-7" d="M65,73H64a1,1,0,0,1,0-2h1a1,1,0,0,1,0,2Z"/><path class="cls-7" d="M65,77H63a1,1,0,0,1,0-2h2a1,1,0,0,1,0,2Z"/><path class="cls-7" d="M65,81h-.29a1,1,0,1,1,0-2H65a1,1,0,0,1,0,2Z"/><path class="cls-7" d="M78,73h-.5a1,1,0,0,1,0-2H78a1,1,0,0,1,0,2Z"/><path class="cls-7" d="M78,77h-.5a1,1,0,0,1,0-2H78a1,1,0,0,1,0,2Z"/><path class="cls-7" d="M78,81h-.29a1,1,0,1,1,0-2H78a1,1,0,0,1,0,2Z"/><path class="cls-7" d="M65,85h-.29a1,1,0,1,1,0-2H65a1,1,0,0,1,0,2Z"/><path class="cls-7" d="M78,85h-.29a1,1,0,1,1,0-2H78a1,1,0,0,1,0,2Z"/><path class="cls-7" d="M65,89h-.29a1,1,0,1,1,0-2H65a1,1,0,0,1,0,2Z"/><path class="cls-7" d="M78,89h-.29a1,1,0,1,1,0-2H78a1,1,0,0,1,0,2Z"/><path class="cls-23" d="M59,90a1,1,0,0,1-1-1V72a1,1,0,0,1,2,0V89A1,1,0,0,1,59,90Z"/><path class="cls-23" d="M70,90a1,1,0,0,1-1-1V72a1,1,0,0,1,2,0V89A1,1,0,0,1,70,90Z"/></g><g class="cls-22"><path class="cls-7" d="M39,54H38a1,1,0,0,1,0-2h1a1,1,0,0,1,0,2Z"/><path class="cls-7" d="M46,54H42a1,1,0,0,1,0-2h4a1,1,0,0,1,0,2Z"/><path class="cls-7" d="M42,58H38a1,1,0,0,1,0-2h4a1,1,0,0,1,0,2Z"/><path class="cls-7" d="M78,58H73a1,1,0,0,1,0-2h5a1,1,0,0,1,0,2Z"/><path class="cls-7" d="M78,54H75a1,1,0,0,1,0-2h3a1,1,0,0,1,0,2Z"/><path class="cls-7" d="M78,62H74a1,1,0,0,1,0-2h4a1,1,0,0,1,0,2Z"/><path class="cls-7" d="M52,58H45a1,1,0,0,1,0-2h7a1,1,0,0,1,0,2Z"/><path class="cls-7" d="M49,62H38a1,1,0,0,1,0-2H49a1,1,0,0,1,0,2Z"/></g><g class="cls-22"><path class="cls-7" d="M39,98H38a1,1,0,0,1,0-2h1a1,1,0,0,1,0,2Z"/><path class="cls-7" d="M46,98H42a1,1,0,0,1,0-2h4a1,1,0,0,1,0,2Z"/><path class="cls-7" d="M78,98H75a1,1,0,0,1,0-2h3a1,1,0,0,1,0,2Z"/></g><rect class="cls-24" height="8" rx="1" width="42" x="37" y="42"/><rect class="cls-24" height="3" rx="1" width="42" x="37" y="66"/><rect class="cls-11" height="4" rx="2" width="16" x="50" y="44"/><rect class="cls-25" height="28" transform="translate(-19.77 21.23) rotate(-13.47)" width="56" x="52" y="80.32"/><path class="cls-26" d="M101.78,99.39l-38.9,9.31a4,4,0,0,0-4.82-3l-2.8-11.66a4,4,0,0,0,3-4.83l38.9-9.31a4,4,0,0,0,4.82,3l2.79,11.67A4,4,0,0,0,101.78,99.39Z"/><rect class="cls-27" height="14" transform="translate(-21.31 21.79) rotate(-13.47)" width="56" x="53.63" y="94.13"/><path class="cls-28" d="M56,115.46a1,1,0,0,1-1-.77L48.54,87.46a1,1,0,0,1,.74-1.21l54.46-13a1,1,0,0,1,1.2.74l6.52,27.23a1,1,0,0,1-.74,1.21l-54.46,13A.85.85,0,0,1,56,115.46ZM50.71,88l6.06,25.28,52.51-12.57-6-25.29Z"/><path class="cls-28" d="M62.88,109.7a1,1,0,0,1-1-.76,3,3,0,0,0-3.62-2.22,1,1,0,0,1-1.21-.74L54.29,94.31A1,1,0,0,1,55,93.1a3,3,0,0,0,2.22-3.61A1,1,0,0,1,58,88.28L96.89,79a1,1,0,0,1,1.2.74,3,3,0,0,0,3.62,2.21,1,1,0,0,1,.75.12,1,1,0,0,1,.45.63l2.8,11.66a1,1,0,0,1-.74,1.21,3,3,0,0,0-2.22,3.61,1,1,0,0,1-.12.76,1,1,0,0,1-.62.45l-38.9,9.32ZM59,104.63a5,5,0,0,1,4.53,2.89l37.15-8.9a5,5,0,0,1,2.88-4.7L101.18,84a4.94,4.94,0,0,1-2.79-.74,5,5,0,0,1-1.91-2.15L59.33,90a5,5,0,0,1-2.89,4.7l2.38,9.92Z"/><ellipse class="cls-25" cx="80" cy="94.32" rx="8.5" ry="10" transform="translate(-19.77 21.23) rotate(-13.47)"/><path class="cls-28" d="M80.64,105.25c-4.45,0-8.64-3.56-9.88-8.72-1.41-5.9,1.58-11.69,6.68-12.91a8.83,8.83,0,0,1,7.35,1.62,11.89,11.89,0,0,1,4.45,6.87h0C90.65,98,87.66,103.8,82.56,105A8.46,8.46,0,0,1,80.64,105.25ZM79.38,85.39a6.18,6.18,0,0,0-1.48.18c-4,1-6.35,5.67-5.19,10.5s5.36,8,9.39,7,6.35-5.67,5.19-10.5h0a9.85,9.85,0,0,0-3.68-5.72A7.2,7.2,0,0,0,79.38,85.39Z"/><circle class="cls-28" cx="53.73" cy="89.81" r="0.5"/><path class="cls-28" d="M53.73,91.31a1.5,1.5,0,1,1,.35,0A1.45,1.45,0,0,1,53.73,91.31Zm0-2-.12,0a.5.5,0,0,0-.37.6.5.5,0,0,0,1-.23A.5.5,0,0,0,53.73,89.31Z"/><circle class="cls-28" cx="58.62" cy="110.24" r="0.5"/><path class="cls-28" d="M58.61,111.74a1.46,1.46,0,0,1-.78-.22,1.48,1.48,0,0,1-.67-.93A1.5,1.5,0,1,1,59,111.7,1.47,1.47,0,0,1,58.61,111.74Zm0-2H58.5a.52.52,0,0,0-.31.23.5.5,0,0,0-.06.38.51.51,0,0,0,.6.37.53.53,0,0,0,.31-.23.5.5,0,0,0,.06-.38.53.53,0,0,0-.22-.31A.48.48,0,0,0,58.62,109.74Z"/><circle class="cls-28" cx="101.38" cy="78.4" r="0.5"/><path class="cls-28" d="M101.38,79.9a1.5,1.5,0,1,1,1.46-1.85h0a1.51,1.51,0,0,1-1.11,1.81A1.45,1.45,0,0,1,101.38,79.9Zm.49-1.61-1,.23a.51.51,0,0,0,.6.37.5.5,0,0,0,.32-.23A.53.53,0,0,0,101.87,78.29Zm-.49-.39-.12,0a.5.5,0,0,0-.37.6l1-.23h0A.52.52,0,0,0,101.38,77.9Z"/><circle class="cls-28" cx="106.27" cy="98.83" r="0.5"/><path class="cls-28" d="M106.27,100.33a1.5,1.5,0,0,1-.78-.22,1.46,1.46,0,0,1-.68-.93A1.52,1.52,0,0,1,105,98a1.48,1.48,0,0,1,.93-.67,1.52,1.52,0,0,1,1.14.18,1.48,1.48,0,0,1,.67.93,1.52,1.52,0,0,1-1.11,1.81A2.21,2.21,0,0,1,106.27,100.33Zm-.49-1.39a.52.52,0,0,0,.23.31.5.5,0,0,0,.38.06.53.53,0,0,0,.31-.22.5.5,0,0,0,.06-.38h0a.52.52,0,0,0-.23-.31.5.5,0,0,0-.38-.06.51.51,0,0,0-.37.6Zm0,0Zm0,0Z"/><path class="cls-26" d="M84.69,98.86h-.5a.55.55,0,0,1-.6-.43c-.06-.29-.13-.6-.21-.92-.18-.74.56-1.86.36-2.91a4.13,4.13,0,0,0,.09-1.82.89.89,0,0,0-.38-.59c0-.41,0-.83-.07-1.27a2.79,2.79,0,0,0-2.71-3c-.61,0-3.07.13-4.14-.46-.39-.22.22,1.37,0,1.56a2.76,2.76,0,0,0-1,3.79L76,94a.88.88,0,0,0-.07.7,4.1,4.1,0,0,0,.9,1.58c.3,1,1.45,1.64,1.64,2.43.07.32.15.63.23.92a.55.55,0,0,1-.34.66l-.5.22a10,10,0,0,0-2.59,1.65,8.23,8.23,0,0,0,6.22,2l.86-.15h.07c.27-.07.53-.15.79-.24a8.23,8.23,0,0,0,4.62-4.67A9.77,9.77,0,0,0,84.69,98.86Z"/><path class="cls-28" d="M80.63,105.25a9.36,9.36,0,0,1-6-2.34,1,1,0,0,1-.35-.75,1,1,0,0,1,.34-.76,11.24,11.24,0,0,1,2.83-1.81l.19-.08c0-.19-.09-.38-.14-.58A3,3,0,0,0,77,98.3a4.82,4.82,0,0,1-1.06-1.53,4.81,4.81,0,0,1-1-1.84,2.13,2.13,0,0,1,0-.9l-.12-.26-.23-.53a3.69,3.69,0,0,1,1-4.71l0-.2c-.11-.58-.23-1.25.36-1.68A1.17,1.17,0,0,1,77,86.6a8.7,8.7,0,0,0,3,.33h.77a3.78,3.78,0,0,1,3.62,3.94l0,.57c0,.1,0,.2,0,.3a2.16,2.16,0,0,1,.37.81,4.81,4.81,0,0,1,0,2.09,5.11,5.11,0,0,1-.24,1.89,3.17,3.17,0,0,0-.16.75c.05.19.1.38.14.57h.15a10.84,10.84,0,0,1,3.41.29,1,1,0,0,1,.64.52,1,1,0,0,1,0,.83,9.13,9.13,0,0,1-5.19,5.22,9.37,9.37,0,0,1-.9.28h-.07a8.75,8.75,0,0,1-1,.17A7.69,7.69,0,0,1,80.63,105.25Zm-3.72-3.12a6.88,6.88,0,0,0,4.43,1.08c.24,0,.49-.08.74-.14h0c.27-.07.5-.15.72-.23a6.78,6.78,0,0,0,3.46-3,10,10,0,0,0-1.55,0h-.53a1.56,1.56,0,0,1-1.61-1.24c-.06-.28-.13-.57-.2-.88A3.43,3.43,0,0,1,82.58,96a3.07,3.07,0,0,0,.17-1.22,1,1,0,0,1,0-.42A3,3,0,0,0,82.85,93v0a1,1,0,0,1-.4-.76c0-.22,0-.44,0-.67l0-.59c-.08-1.68-1-2-1.79-2H80a21.4,21.4,0,0,1-2.44-.13,1.18,1.18,0,0,1-.47,1,1.8,1.8,0,0,0-.72,2.58l.25.55.27.6a1,1,0,0,1,0,.85,3.11,3.11,0,0,0,.69,1.2,1,1,0,0,1,.2.37,2.9,2.9,0,0,0,.68,1,3.5,3.5,0,0,1,1,1.52c.07.31.14.6.22.87a1.57,1.57,0,0,1-.91,1.86l-.49.21A11.81,11.81,0,0,0,76.91,102.13Zm1-2.76h0Zm6.77-.51h0Zm-.54-1h0ZM83,93.07Z"/><path class="cls-25" d="M90.59,102.07l-2.92.7A12.68,12.68,0,0,0,76,105.56l-2.92.7.93,3.89L91.52,106Z"/><path class="cls-28" d="M74,111.15a1,1,0,0,1-1-.77l-.93-3.89a1,1,0,0,1,.12-.76,1.06,1.06,0,0,1,.62-.45l2.64-.63a13.89,13.89,0,0,1,12.22-2.92l2.64-.64a1,1,0,0,1,1.2.74l.94,3.89a1,1,0,0,1-.74,1.21l-17.5,4.19A1,1,0,0,1,74,111.15ZM74.3,107l.46,1.94,15.56-3.72-.47-2-1.95.47a1,1,0,0,1-.58,0,11.7,11.7,0,0,0-10.58,2.53.94.94,0,0,1-.5.29Z"/><g class="cls-22"><path class="cls-7" d="M64.94,97.87a2,2,0,0,1-1-.3,2,2,0,1,1,3-2.17h0a2,2,0,0,1-1.48,2.41A1.84,1.84,0,0,1,64.94,97.87Z"/><line class="cls-25" x1="68.8" x2="62.96" y1="99.06" y2="100.46"/><path class="cls-28" d="M63,101.46a1,1,0,0,1-.23-2l5.83-1.39A1,1,0,1,1,69,100l-5.84,1.4A.85.85,0,0,1,63,101.46Z"/></g><g class="cls-22"><path class="cls-7" d="M94.12,90.88a2,2,0,0,1-1-.29,2,2,0,0,1-.9-1.24,2,2,0,0,1,1.48-2.41,2,2,0,0,1,1.51.24,2,2,0,0,1,.9,1.24,2,2,0,0,1-.24,1.51,2,2,0,0,1-1.24.9A2.59,2.59,0,0,1,94.12,90.88Zm0-2Z"/><line class="cls-25" x1="97.97" x2="92.14" y1="92.07" y2="93.47"/><path class="cls-28" d="M92.13,94.47a1,1,0,0,1-.23-2l5.84-1.4a1,1,0,0,1,1.2.74,1,1,0,0,1-.74,1.21l-5.83,1.39A1,1,0,0,1,92.13,94.47Z"/></g><rect class="cls-25" height="28" width="56" x="57" y="91"/><path class="cls-26" d="M105,115H65a4,4,0,0,0-4-4V99a4,4,0,0,0,4-4h40a4,4,0,0,0,4,4v12A4,4,0,0,0,105,115Z"/><rect class="cls-27" height="14" width="56" x="57" y="105"/><path class="cls-28" d="M113,120H57a1,1,0,0,1-1-1V91a1,1,0,0,1,1-1h56a1,1,0,0,1,1,1v28A1,1,0,0,1,113,120Zm-55-2h54V92H58Z"/><path class="cls-28" d="M105,116H65a1,1,0,0,1-1-1,3,3,0,0,0-3-3,1,1,0,0,1-1-1V99a1,1,0,0,1,1-1,3,3,0,0,0,3-3,1,1,0,0,1,1-1h40a1,1,0,0,1,1,1,3,3,0,0,0,3,3,1,1,0,0,1,1,1v12a1,1,0,0,1-1,1,3,3,0,0,0-3,3A1,1,0,0,1,105,116Zm-39.1-2h38.2a5,5,0,0,1,3.9-3.9V99.9a5,5,0,0,1-3.9-3.9H65.9A5,5,0,0,1,62,99.9v10.2A5,5,0,0,1,65.9,114Z"/><ellipse class="cls-25" cx="85" cy="105" rx="8.5" ry="10"/><path class="cls-28" d="M85,116c-5.24,0-9.5-4.93-9.5-11S79.76,94,85,94s9.5,4.93,9.5,11S90.24,116,85,116Zm0-20c-4.14,0-7.5,4-7.5,9s3.36,9,7.5,9,7.5-4,7.5-9S89.14,96,85,96Z"/><circle class="cls-28" cx="60.5" cy="94.5" r="0.5"/><path class="cls-28" d="M60.5,96A1.5,1.5,0,1,1,62,94.5,1.5,1.5,0,0,1,60.5,96Zm0-2a.5.5,0,0,0,0,1,.5.5,0,0,0,0-1Z"/><circle class="cls-28" cx="60.5" cy="115.5" r="0.5"/><path class="cls-28" d="M60.5,117a1.5,1.5,0,1,1,1.5-1.5A1.5,1.5,0,0,1,60.5,117Zm0-2a.5.5,0,0,0-.5.5.5.5,0,0,0,.5.5.5.5,0,0,0,.5-.5A.51.51,0,0,0,60.5,115Z"/><circle class="cls-28" cx="109.5" cy="94.5" r="0.5"/><path class="cls-28" d="M109.5,96a1.5,1.5,0,1,1,1.5-1.5A1.5,1.5,0,0,1,109.5,96Zm0-2a.5.5,0,0,0,0,1,.5.5,0,0,0,0-1Z"/><circle class="cls-28" cx="109.5" cy="115.5" r="0.5"/><path class="cls-28" d="M109.5,117a1.5,1.5,0,1,1,1.5-1.5A1.5,1.5,0,0,1,109.5,117Zm0-2a.5.5,0,0,0-.5.5.5.5,0,0,0,.5.5.5.5,0,0,0,.5-.5A.51.51,0,0,0,109.5,115Z"/><path class="cls-26" d="M88.5,110.51,88,110.4a.55.55,0,0,1-.49-.55c0-.3,0-.62,0-.95,0-.76,1-1.68,1-2.75a4.15,4.15,0,0,0,.51-1.74.9.9,0,0,0-.23-.67c.08-.4.14-.82.23-1.25A2.81,2.81,0,0,0,87.14,99c-.59-.19-3-.59-3.92-1.41-.33-.3-.11,1.38-.4,1.51a2.76,2.76,0,0,0-1.89,3.44c.08.43.15.85.23,1.25a.86.86,0,0,0-.23.67,4.12,4.12,0,0,0,.5,1.74c.06,1.07,1,1.93,1,2.75,0,.33,0,.65,0,.95a.55.55,0,0,1-.48.55l-.54.11a9.86,9.86,0,0,0-2.9,1A7.68,7.68,0,0,0,85,115h.07c.28,0,.55,0,.83,0a8.21,8.21,0,0,0,5.57-3.47A9.44,9.44,0,0,0,88.5,110.51Z"/><path class="cls-28" d="M85,116a8.22,8.22,0,0,1-1-.06,9.16,9.16,0,0,1-6.26-3.85,1,1,0,0,1,.34-1.47,11.48,11.48,0,0,1,3.18-1.1l.2,0v-.6a2.61,2.61,0,0,0-.34-.72,4.79,4.79,0,0,1-.66-1.74,4.79,4.79,0,0,1-.53-2,2.06,2.06,0,0,1,.17-.88l-.06-.3-.1-.55A3.67,3.67,0,0,1,82,98.33v-.2c0-.6.07-1.27.75-1.55a1.15,1.15,0,0,1,1.14.22,8.74,8.74,0,0,0,2.82,1l.75.19a3.78,3.78,0,0,1,2.6,4.68l-.1.55-.06.3a2.07,2.07,0,0,1,.18.88,4.94,4.94,0,0,1-.53,2,5.07,5.07,0,0,1-.68,1.77,3.18,3.18,0,0,0-.33.7v.59l.15,0a11,11,0,0,1,3.25,1.08,1,1,0,0,1,.5.66,1,1,0,0,1-.17.81A9.11,9.11,0,0,1,86,115.94l-.94.06Zm-4.81-4.12A6.87,6.87,0,0,0,84.24,114c.25,0,.5,0,.78,0s.52,0,.75,0a6.85,6.85,0,0,0,4.07-2.08,9.8,9.8,0,0,0-1.51-.38h0l-.48-.1a1.54,1.54,0,0,1-1.28-1.58c0-.28,0-.59,0-.9a3.47,3.47,0,0,1,.57-1.66,3,3,0,0,0,.46-1.14.92.92,0,0,1,.11-.4,3.21,3.21,0,0,0,.4-1.29v0a1,1,0,0,1-.21-.84q.06-.32.12-.66l.1-.58c.32-1.64-.51-2.15-1.27-2.4-.11,0-.32-.08-.57-.15a16.91,16.91,0,0,1-2.34-.68,1.25,1.25,0,0,1-.7.9,1.78,1.78,0,0,0-1.3,2.33l.1.58c0,.23.08.45.13.66a1,1,0,0,1-.21.83,3.25,3.25,0,0,0,.39,1.33.8.8,0,0,1,.11.4,3,3,0,0,0,.44,1.09,3.54,3.54,0,0,1,.59,1.71c0,.31,0,.62,0,.9a1.55,1.55,0,0,1-1.32,1.59l-.52.1A10.23,10.23,0,0,0,80.18,111.88Zm8.35-2Zm-6.73-.47h0Zm6.38,0h0Zm0-5Zm-5.73-6.34h0Z"/><path class="cls-25" d="M93.5,115h-3a12.73,12.73,0,0,0-12,0h-3v4h18Z"/><path class="cls-28" d="M93.5,120h-18a1,1,0,0,1-1-1v-4a1,1,0,0,1,1-1h2.71a13.92,13.92,0,0,1,12.57,0H93.5a1,1,0,0,1,1,1v4A1,1,0,0,1,93.5,120Zm-17-2h16v-2h-2a1,1,0,0,1-.55-.17,11.79,11.79,0,0,0-10.88,0,1,1,0,0,1-.56.17h-2Z"/><g class="cls-22"><path class="cls-7" d="M70,105a2,2,0,1,1,2-2A2,2,0,0,1,70,105Zm0-2Z"/><path class="cls-28" d="M73,108H67a1,1,0,0,1,0-2h6a1,1,0,0,1,0,2Z"/></g><g class="cls-22"><path class="cls-7" d="M100,105a2,2,0,1,1,2-2A2,2,0,0,1,100,105Zm0-2Z"/><path class="cls-28" d="M103,108H97a1,1,0,0,1,0-2h6a1,1,0,0,1,0,2Z"/></g></svg>