<?xml version="1.0" ?><svg data-name="011" height="128" id="_011" viewBox="0 0 128 128" width="128" xmlns="http://www.w3.org/2000/svg"><title/><g style="opacity:0.30000000000000004"><path d="M125.69988,48.66277a30.00059,30.00059,0,0,0-23.51163-25.0453A19.68967,19.68967,0,0,1,91.25562,17.0691a37.01139,37.01139,0,0,0-64.2547,15.37177A21.01331,21.01331,0,0,1,16.11875,46.11444C1.95588,53.47292-5.13974,72.57328,7.76885,90.49767a16.60222,16.60222,0,0,0,6.35231,4.90944,20.57854,20.57854,0,0,1,10.01954,10.876,28.48779,28.48779,0,0,0,42.6239,12.6366,20.05863,20.05863,0,0,1,16.62372-2.94261,29.00072,29.00072,0,0,0,36.03811-33.79264A20.08025,20.08025,0,0,1,121.936,68.05283,29.83225,29.83225,0,0,0,125.69988,48.66277Z" style="fill:#97c1ff"/><path d="M119.64419,36.82746A9.78643,9.78643,0,0,0,100.75832,32.326a5.22186,5.22186,0,0,0-8.46447,4.07117c0,.15028.01008.29806.02265.44516a7.79157,7.79157,0,0,0,2.5882,15.15487h22.192a7.7921,7.7921,0,0,0,2.5475-15.16974Z" style="fill:#eef6ff"/><path d="M117.09667,49.39694h-22.192a7.81818,7.81818,0,0,1-7.718-6.51941,7.78928,7.78928,0,0,0,7.718,9.11968h22.192a7.79038,7.79038,0,0,0,7.71812-9.12026A7.81828,7.81828,0,0,1,117.09667,49.39694Z" style="fill:#5cbeff;opacity:0.30000000000000004"/><path d="M92.31648,39.44259c-.01254-.14711-.02264-.2949-.02264-.44518a5.22187,5.22187,0,0,1,8.46449-4.07118,9.77787,9.77787,0,0,1,18.88586,4.50149,7.81683,7.81683,0,0,1,5.17059,6.04948,7.719,7.719,0,0,0-5.17059-8.64974A9.78643,9.78643,0,0,0,100.75833,32.326a5.22187,5.22187,0,0,0-8.46449,4.07118c0,.15028.0101.29808.02264.44518a7.71743,7.71743,0,0,0-5.12975,8.63546A7.81611,7.81611,0,0,1,92.31648,39.44259Z" style="fill:#fff"/><path d="M117.09668,52.99707H94.9043a8.79026,8.79026,0,0,1-3.60645-16.8252,6.22044,6.22044,0,0,1,6.21777-5.97461,6.15216,6.15216,0,0,1,2.80078.66406,10.791,10.791,0,0,1,20.3916,4.88574c0,.1416-.00293.28125-.00977.4209a8.79131,8.79131,0,0,1-3.60156,16.8291ZM97.51563,32.19727a4.2153,4.2153,0,0,0-4.22168,4.2002c0,.12109.00879.24023.01855.35938a1.001,1.001,0,0,1-.666,1.03027,6.791,6.791,0,0,0,2.25781,13.21h22.19238a6.79219,6.79219,0,0,0,2.22363-13.22363,1.002,1.002,0,0,1-.66992-1.05566,8.78635,8.78635,0,0,0-16.95605-4.03906.99894.99894,0,0,1-1.55566.43164A4.19,4.19,0,0,0,97.51563,32.19727Z" style="fill:#6d6daa"/><path d="M117.09669,36.39717a7.85046,7.85046,0,0,1,2.56886.4292" style="fill:#eef6ff"/><path d="M119.666,37.82617a.99859.99859,0,0,1-.32617-.05469,6.85631,6.85631,0,0,0-2.24316-.374,1,1,0,0,1,0-2,8.85772,8.85772,0,0,1,2.89551.4834,1,1,0,0,1-.32617,1.94531Z" style="fill:#6d6daa"/><path d="M92.31528,36.83354a7.8503,7.8503,0,0,1,2.58941-.43637" style="fill:#eef6ff"/><path d="M92.31543,37.834a1.00014,1.00014,0,0,1-.33008-1.94434,8.84646,8.84646,0,0,1,2.91895-.49219,1,1,0,0,1,0,2,6.81875,6.81875,0,0,0-2.25879.38086A1.00137,1.00137,0,0,1,92.31543,37.834Z" style="fill:#6d6daa"/><path d="M100.724,32.29436a5.22779,5.22779,0,0,1,1.42011,1.69362" style="fill:#eef6ff"/><path d="M102.14551,34.98828a.99983.99983,0,0,1-.88574-.53418,4.244,4.244,0,0,0-1.14941-1.37012,1.00014,1.00014,0,1,1,1.22656-1.58008,6.28573,6.28573,0,0,1,1.69238,2.01855,1.00007,1.00007,0,0,1-.88379,1.46582Z" style="fill:#6d6daa"/><path d="M91.61211,11.66147a6.02242,6.02242,0,0,1,11.62208-2.77013,3.21345,3.21345,0,0,1,5.2089,2.50534c0,.09248-.0062.18342-.01394.27394a4.79481,4.79481,0,0,1-1.59274,9.32607H93.1798a4.79514,4.79514,0,0,1-1.56769-9.33523Z" style="fill:#eef6ff"/><path d="M91.6121,13.66167a6.02241,6.02241,0,0,1,11.62207-2.77014,3.21348,3.21348,0,0,1,5.20892,2.50531c0,.09253-.00623.18347-.01392.274a4.80574,4.80574,0,0,1,3.11346,3.54413,4.764,4.764,0,0,0-3.11346-5.54437c.00769-.09052.01392-.18146.01392-.27393a3.21348,3.21348,0,0,0-5.20892-2.50531A6.01711,6.01711,0,0,0,91.6121,11.66149a4.76494,4.76494,0,0,0-3.13855,5.55334A4.80624,4.80624,0,0,1,91.6121,13.66167Z" style="fill:#fff"/><path d="M106.8364,18.99651H93.17979a4.81364,4.81364,0,0,1-4.70624-3.78186,4.75148,4.75148,0,0,0-.11371.98206,4.81,4.81,0,0,0,4.81995,4.8H106.8364a4.81,4.81,0,0,0,4.82-4.8,4.75032,4.75032,0,0,0-.11377-.98193A4.8136,4.8136,0,0,1,106.8364,18.99651Z" style="fill:#5cbeff;opacity:0.30000000000000004"/><path d="M106.83594,21.99707H93.17969a5.79441,5.79441,0,0,1-2.60645-10.98242v-.01758a7.02475,7.02475,0,0,1,13.10059-3.501,4.2106,4.2106,0,0,1,5.752,3.51074,5.79416,5.79416,0,0,1-2.58984,10.99023Zm-9.23828-16a5.018,5.018,0,0,0-5.02441,5,4.92611,4.92611,0,0,0,.0332.55273,1.00141,1.00141,0,0,1-.66992,1.05762,3.79526,3.79526,0,0,0,1.24316,7.38965h13.65625a3.7948,3.7948,0,0,0,1.26367-7.38184.99988.99988,0,0,1-.667-1.03027c.00488-.0625.01074-.125.01074-.18848a2.21321,2.21321,0,0,0-3.58887-1.7207.99932.99932,0,0,1-1.55566-.43164A5.047,5.047,0,0,0,97.59766,5.99707Z" style="fill:#6d6daa"/><path d="M93.1798,11.39668a4.83105,4.83105,0,0,0-1.58084.26412" style="fill:#eef6ff"/><path d="M91.59863,12.66113a.99989.99989,0,0,1-.32812-1.94434,5.79128,5.79128,0,0,1,1.90918-.32031,1,1,0,0,1,0,2,3.81614,3.81614,0,0,0-1.25293.209A.99012.99012,0,0,1,91.59863,12.66113Z" style="fill:#6d6daa"/><path d="M108.4299,11.66522a4.831,4.831,0,0,0-1.59349-.26853" style="fill:#eef6ff"/><path d="M108.42969,12.665a.99573.99573,0,0,1-.3291-.05566,3.8252,3.8252,0,0,0-1.26465-.21289,1,1,0,0,1,0-2,5.84156,5.84156,0,0,1,1.92285.32422,1,1,0,0,1-.3291,1.94434Z" style="fill:#6d6daa"/><path d="M103.25532,8.87188a3.2171,3.2171,0,0,0-.87391,1.04223" style="fill:#eef6ff"/><path d="M102.38086,10.91406a1.00007,1.00007,0,0,1-.88379-1.46582A4.24746,4.24746,0,0,1,102.64063,8.083a1,1,0,1,1,1.22852,1.57813,2.24967,2.24967,0,0,0-.60254.71875A.99983.99983,0,0,1,102.38086,10.91406Z" style="fill:#6d6daa"/><path d="M6.77236,22.015a7.98432,7.98432,0,0,1,11.87536-8.84723,10.48932,10.48932,0,0,1,18.80249,5.25052A7.49626,7.49626,0,0,1,35.007,33.00256l-28.00086.00021A5.49632,5.49632,0,0,1,6.77236,22.015Z" style="fill:#eef6ff"/><path d="M6.77234,25.01525a7.62435,7.62435,0,0,1-.20245-2.97186,5.4694,5.4694,0,0,0-4.84137,6.9967A5.4833,5.4833,0,0,1,6.77234,25.01525Z" style="fill:#fff"/><path d="M14.50641,15.003a7.94932,7.94932,0,0,1,4.1413,1.165A10.4893,10.4893,0,0,1,37.4502,21.41857a7.5,7.5,0,0,1,4.897,5.62262,7.49379,7.49379,0,0,0-4.897-8.62292,10.48933,10.48933,0,0,0-18.80249-5.25055A7.98713,7.98713,0,0,0,6.507,20.00243a7.71983,7.71983,0,0,0,.1535,1.44745A8,8,0,0,1,14.50641,15.003Z" style="fill:#fff"/><path d="M6.77234,19.01464c-.04785-.18445-.076-.3761-.11188-.56506-.03839.19507-.06665.39362-.09058.59351C6.63867,19.03759,6.70288,19.01757,6.77234,19.01464Z" style="fill:#5cbeff"/><path d="M35.007,30.00225l-28.00085.00018a5.49887,5.49887,0,0,1-5.27765-3.96265,5.43593,5.43593,0,0,0-.222,1.4632,5.49971,5.49971,0,0,0,5.49963,5.49976L35.007,33.00255a7.43038,7.43038,0,0,0,7.34021-8.96167A7.50129,7.50129,0,0,1,35.007,30.00225Z" style="fill:#5cbeff;opacity:0.30000000000000004"/><path d="M35.00684,34.00293H7.00586A6.4977,6.4977,0,0,1,5.58691,21.16406a8.52183,8.52183,0,0,1-.08008-1.16113,8.98613,8.98613,0,0,1,12.89063-8.10742A11.48907,11.48907,0,0,1,38.36523,17.7002a8.49658,8.49658,0,0,1-3.3584,16.30273Zm-20.5-21a6.97175,6.97175,0,0,0-6.7666,8.76074.99988.99988,0,0,1-.92578,1.25,4.49662,4.49662,0,0,0,.19141,8.98926h28.001A6.49657,6.49657,0,0,0,37.124,19.36328a1.00061,1.00061,0,0,1-.66895-.84277,9.489,9.489,0,0,0-17.01074-4.748.99872.99872,0,0,1-1.31641.25A6.97687,6.97687,0,0,0,14.50684,13.00293Z" style="fill:#6d6daa"/><path d="M36.99316,23.752a.9995.9995,0,0,1-.95117-1.30957,9.50618,9.50618,0,0,0-9.03516-12.43945,1,1,0,0,1,0-2,11.50775,11.50775,0,0,1,10.9375,15.05859A1.001,1.001,0,0,1,36.99316,23.752Z" style="fill:#6d6daa"/><path d="M10.62891,24.36523a.99764.99764,0,0,1-.65918-.248,4.492,4.492,0,0,0-2.96387-1.11426,1,1,0,0,1,0-2,6.49452,6.49452,0,0,1,4.28223,1.61035,1,1,0,0,1-.65918,1.752Z" style="fill:#6d6daa"/><path d="M21.01172,16.34473a.99785.99785,0,0,1-.81348-.417,7.02478,7.02478,0,0,0-5.69141-2.9248,1,1,0,0,1,0-2,9.028,9.028,0,0,1,7.31641,3.75879,1,1,0,0,1-.81152,1.583Z" style="fill:#6d6daa"/></g><path d="M77.98242,14H70a1,1,0,0,1,0-2h7.98242a1,1,0,0,1,0,2Z" style="fill:#6d6daa"/><path d="M57.98242,14H50a1,1,0,0,1,0-2h7.98242a1,1,0,1,1,0,2Z" style="fill:#6d6daa"/><path d="M64,44a.99942.99942,0,0,1-1-1V18a1,1,0,0,1,2,0V43A.99942.99942,0,0,1,64,44Z" style="fill:#6d6daa"/><circle cx="63.99109" cy="13" r="5" style="fill:#eef6ff"/><path d="M63.99109,11a4.98325,4.98325,0,0,1,4.74561,3.5,4.946,4.946,0,0,0,.25439-1.5,5,5,0,0,0-10,0,4.946,4.946,0,0,0,.25439,1.5A4.98313,4.98313,0,0,1,63.99109,11Z" style="fill:#fff;opacity:0.75"/><path d="M90.001,32.00879a1.00034,1.00034,0,0,1-.84863-.46973L80,16.8877,70.84766,31.53906a.99986.99986,0,0,1-1.69531-1.06055l10-16.00879a1.03925,1.03925,0,0,1,1.69531,0l10,16.00879a1.00007,1.00007,0,0,1-.84668,1.53027Z" style="fill:#6d6daa"/><circle cx="47.99109" cy="13" r="2" style="fill:#eef6ff"/><circle cx="79.99109" cy="13" r="2" style="fill:#eef6ff"/><path d="M89.98374,31.0089H70a10,10,0,0,0,20,0Z" style="fill:#ffd599"/><path d="M89.61376,33.73617A9.98482,9.98482,0,0,0,90,31.0089H70a9.98482,9.98482,0,0,0,.38624,2.72727Z" style="fill:#fff;opacity:0.75"/><path d="M89.98374,31.0089H86c0,5.05909-2.4877,9.22968-7.36364,9.89635A9.93116,9.93116,0,0,0,90,31.0089Z" style="fill:#b52a4e;opacity:0.30000000000000004"/><path d="M78.18182,31.0089H74.54545c0,5.5229,2.44207,10,5.45455,10C78.99586,41.0089,78.18182,36.5318,78.18182,31.0089Z" style="fill:#fff;opacity:0.75"/><path d="M63.99121,19a6,6,0,1,1,6-6A6.00656,6.00656,0,0,1,63.99121,19Zm0-10a4,4,0,1,0,4,4A4.004,4.004,0,0,0,63.99121,9Z" style="fill:#6d6daa"/><path d="M63.99121,15.5a2.50232,2.50232,0,0,1-2.5-2.5,1,1,0,0,1,2,0,.5.5,0,0,0,1,0,1,1,0,0,1,2,0A2.50232,2.50232,0,0,1,63.99121,15.5Z" style="fill:#6d6daa"/><path d="M47.99121,16a3,3,0,1,1,3-3A3.00328,3.00328,0,0,1,47.99121,16Zm0-4a1,1,0,1,0,1,1A1.00068,1.00068,0,0,0,47.99121,12Z" style="fill:#6d6daa"/><path d="M79.99121,16a3,3,0,1,1,3-3A3.00328,3.00328,0,0,1,79.99121,16Zm0-4a1,1,0,1,0,1,1A1.00068,1.00068,0,0,0,79.99121,12Z" style="fill:#6d6daa"/><path d="M80,42.00879a11.01245,11.01245,0,0,1-11-11,.99942.99942,0,0,1,1-1H90a.99942.99942,0,0,1,1,1A11.01245,11.01245,0,0,1,80,42.00879Zm-8.94434-10a9.00007,9.00007,0,0,0,17.88867,0Z" style="fill:#6d6daa"/><path d="M57.98374,31H38a10,10,0,0,0,20,0Z" style="fill:#ffd599"/><path d="M57.61376,33.72727A9.98482,9.98482,0,0,0,58,31H38a9.98482,9.98482,0,0,0,.38624,2.72727Z" style="fill:#fff;opacity:0.75"/><path d="M57.98374,31H54c0,5.05909-2.4877,9.22968-7.36364,9.89635A9.93116,9.93116,0,0,0,58,31Z" style="fill:#b52a4e;opacity:0.30000000000000004"/><path d="M46.18182,31H42.54545c0,5.5229,2.44207,10,5.45455,10C46.99586,41,46.18182,36.5229,46.18182,31Z" style="fill:#fff;opacity:0.75"/><path d="M48,42A11.01245,11.01245,0,0,1,37,31a.99942.99942,0,0,1,1-1H58a.99942.99942,0,0,1,1,1A11.01245,11.01245,0,0,1,48,42ZM39.05566,32a9.00007,9.00007,0,0,0,17.88867,0Z" style="fill:#6d6daa"/><path d="M58.001,32.00879a1.00034,1.00034,0,0,1-.84863-.46973L48,16.8877,38.84766,31.53906a.99986.99986,0,0,1-1.69531-1.06055l10-16.00879a1.03925,1.03925,0,0,1,1.69531,0l10,16.00879a1.00007,1.00007,0,0,1-.84668,1.53027Z" style="fill:#6d6daa"/><rect height="66" rx="2" ry="2" style="fill:#c9c1f5" width="100" x="14" y="50"/><path d="M112,113H16a2.00006,2.00006,0,0,1-2-2v3a2.00006,2.00006,0,0,0,2,2h96a2.00006,2.00006,0,0,0,2-2v-3A2.00006,2.00006,0,0,1,112,113Z" style="fill:#5b58bc;opacity:0.30000000000000004"/><path d="M16,53h96a2.00006,2.00006,0,0,1,2,2V52a2.00006,2.00006,0,0,0-2-2H16a2.00006,2.00006,0,0,0-2,2v3A2.00006,2.00006,0,0,1,16,53Z" style="fill:#fff;opacity:0.30000000000000004"/><path d="M112,117H16a3.00328,3.00328,0,0,1-3-3V52a3.00328,3.00328,0,0,1,3-3h96a3.00328,3.00328,0,0,1,3,3v62A3.00328,3.00328,0,0,1,112,117ZM16,51a1.00068,1.00068,0,0,0-1,1v62a1.00068,1.00068,0,0,0,1,1h96a1.00068,1.00068,0,0,0,1-1V52a1.00068,1.00068,0,0,0-1-1Z" style="fill:#6d6daa"/><rect height="6" style="fill:#ced8ee" width="46" x="18" y="106"/><path d="M64,113H18a.99942.99942,0,0,1-1-1v-6a.99942.99942,0,0,1,1-1H64a.99942.99942,0,0,1,1,1v6A.99942.99942,0,0,1,64,113Zm-45-2H63v-4H19Z" style="fill:#6d6daa"/><path d="M18,109v3H64a3,3,0,0,0-3-3Z" style="fill:#ced8ee"/><path d="M64,113H18a.99942.99942,0,0,1-1-1v-3a.99942.99942,0,0,1,1-1H61a4.004,4.004,0,0,1,4,4A.99942.99942,0,0,1,64,113Zm-45-2H62.73145A1.999,1.999,0,0,0,61,110H19Z" style="fill:#6d6daa"/><path d="M58,46H18v60H58a6,6,0,0,1,6,6V51C64,47.68625,61.31372,46,58,46Z" style="fill:#fff"/><path d="M58,46H54c3.31372,0,6,1.68628,6,5v55.34875A5.997,5.997,0,0,1,64,112V51C64,47.68625,61.31372,46,58,46Z" style="fill:#7690a8;opacity:0.30000000000000004"/><path d="M64,113a.99942.99942,0,0,1-1-1,5.00589,5.00589,0,0,0-5-5H18a.99942.99942,0,0,1-1-1V46a.99942.99942,0,0,1,1-1H58c4.18652,0,7,2.41113,7,6v61A.99942.99942,0,0,1,64,113Zm-45-8H58a6.97811,6.97811,0,0,1,5,2.10547V51c0-2.94922-2.583-4-5-4H19Z" style="fill:#6d6daa"/><rect height="6" style="fill:#ced8ee" width="46" x="64" y="106"/><path d="M110,113H64a.99942.99942,0,0,1-1-1v-6a.99942.99942,0,0,1,1-1h46a.99942.99942,0,0,1,1,1v6A.99942.99942,0,0,1,110,113Zm-45-2h44v-4H65Z" style="fill:#6d6daa"/><path d="M110,109v3H64a3,3,0,0,1,3-3Z" style="fill:#ced8ee"/><path d="M110,113H64a.99942.99942,0,0,1-1-1,4.004,4.004,0,0,1,4-4h43a.99942.99942,0,0,1,1,1v3A.99942.99942,0,0,1,110,113Zm-44.73145-2H109v-1H67A1.999,1.999,0,0,0,65.26855,111Z" style="fill:#6d6daa"/><path d="M70,46h40v60H70a6,6,0,0,0-6,6V51C64,47.68625,66.68628,46,70,46Z" style="fill:#fff"/><path d="M70,46h4c-3.31372,0-6,1.68628-6,5v55.34875A5.997,5.997,0,0,0,64,112V51C64,47.68625,66.68628,46,70,46Z" style="fill:#7690a8;opacity:0.30000000000000004"/><path d="M64,113a.99942.99942,0,0,1-1-1V51c0-3.58887,2.81348-6,7-6h40a.99942.99942,0,0,1,1,1v60a.99942.99942,0,0,1-1,1H70a5.00589,5.00589,0,0,0-5,5A.99942.99942,0,0,1,64,113Zm6-66c-2.417,0-5,1.05078-5,4v56.10547A6.97811,6.97811,0,0,1,70,105h39V47Z" style="fill:#6d6daa"/><g style="opacity:0.5"><path d="M58,65H28a1,1,0,0,1,0-2H58a1,1,0,0,1,0,2Z" style="fill:#6d6daa"/><path d="M58,69H28a1,1,0,0,1,0-2H58a1,1,0,0,1,0,2Z" style="fill:#6d6daa"/><path d="M24,65a.99953.99953,0,0,1-.37988-.08008,1.14723,1.14723,0,0,1-.33008-.21,1.16058,1.16058,0,0,1-.21-.33008.9411.9411,0,0,1,0-.75977,1.14723,1.14723,0,0,1,.21-.33008,1.02891,1.02891,0,0,1,.33008-.21.91321.91321,0,0,1,.75977,0,1.16058,1.16058,0,0,1,.33008.21,1.14723,1.14723,0,0,1,.21.33008.9411.9411,0,0,1,0,.75977.90089.90089,0,0,1-.54.54A.99953.99953,0,0,1,24,65Z" style="fill:#6d6daa"/></g><g style="opacity:0.5"><path d="M58,75H28a1,1,0,0,1,0-2H58a1,1,0,0,1,0,2Z" style="fill:#6d6daa"/><path d="M48,79H28a1,1,0,0,1,0-2H48a1,1,0,0,1,0,2Z" style="fill:#6d6daa"/><path d="M24,75a.99953.99953,0,0,1-.37988-.08008,1.14723,1.14723,0,0,1-.33008-.21A.98946.98946,0,0,1,23,74a.99953.99953,0,0,1,.08008-.37988,1.02891,1.02891,0,0,1,.21-.33008.99747.99747,0,0,1,1.08984-.21,1.16058,1.16058,0,0,1,.33008.21A1.05235,1.05235,0,0,1,25,74a.99347.99347,0,0,1-.29.71,1.16058,1.16058,0,0,1-.33008.21A.99953.99953,0,0,1,24,75Z" style="fill:#6d6daa"/></g><g style="opacity:0.5"><path d="M58,85H28a1,1,0,0,1,0-2H58a1,1,0,0,1,0,2Z" style="fill:#6d6daa"/><path d="M52,89H28a1,1,0,0,1,0-2H52a1,1,0,0,1,0,2Z" style="fill:#6d6daa"/><path d="M24,85a.99953.99953,0,0,1-.37988-.08008,1.14723,1.14723,0,0,1-.33008-.21A.98946.98946,0,0,1,23,84a.99953.99953,0,0,1,.08008-.37988.93277.93277,0,0,1,.21-.33008.99747.99747,0,0,1,1.08984-.21,1.16058,1.16058,0,0,1,.33008.21A1.05235,1.05235,0,0,1,25,84a.99347.99347,0,0,1-.29.71,1.16058,1.16058,0,0,1-.33008.21A.99953.99953,0,0,1,24,85Z" style="fill:#6d6daa"/></g><g style="opacity:0.5"><path d="M58,95H28a1,1,0,0,1,0-2H58a1,1,0,0,1,0,2Z" style="fill:#6d6daa"/><path d="M54,99H28a1,1,0,0,1,0-2H54a1,1,0,0,1,0,2Z" style="fill:#6d6daa"/><path d="M24,95a.99953.99953,0,0,1-.37988-.08008,1.14723,1.14723,0,0,1-.33008-.21A.98946.98946,0,0,1,23,94a.99953.99953,0,0,1,.08008-.37988.90089.90089,0,0,1,.54-.54.99419.99419,0,0,1,.75977,0,1.16058,1.16058,0,0,1,.33008.21A1.05235,1.05235,0,0,1,25,94a.99347.99347,0,0,1-.29.71,1.16058,1.16058,0,0,1-.33008.21A.99953.99953,0,0,1,24,95Z" style="fill:#6d6daa"/></g><path d="M41,59a.99688.99688,0,0,1-.707-.293l-2-2A.99989.99989,0,0,1,39.707,55.293l1.21,1.21L44.21875,52.375a1.00049,1.00049,0,1,1,1.5625,1.25l-4,5a1.00194,1.00194,0,0,1-.72559.373C41.03711,58.999,41.01855,59,41,59Z" style="fill:#5ecca0"/><g style="opacity:0.5"><path d="M104,65H74a1,1,0,0,1,0-2h30a1,1,0,0,1,0,2Z" style="fill:#6d6daa"/><path d="M104,69H74a1,1,0,0,1,0-2h30a1,1,0,0,1,0,2Z" style="fill:#6d6daa"/><path d="M70,65a.96089.96089,0,0,1-.71-.2998A.95129.95129,0,0,1,69,64a.99953.99953,0,0,1,.08008-.37988,1.02891,1.02891,0,0,1,.21-.33008,1.61012,1.61012,0,0,1,.14941-.12012.74163.74163,0,0,1,.18066-.08984.61507.61507,0,0,1,.18945-.06055.96563.96563,0,0,1,1.11035.60059A.99953.99953,0,0,1,71,64a1.007,1.007,0,0,1-1,1Z" style="fill:#6d6daa"/></g><g style="opacity:0.5"><path d="M104,75H74a1,1,0,0,1,0-2h30a1,1,0,0,1,0,2Z" style="fill:#6d6daa"/><path d="M94,79H74a1,1,0,0,1,0-2H94a1,1,0,0,1,0,2Z" style="fill:#6d6daa"/><path d="M70,75a.99018.99018,0,0,1-.71-.29,1.16058,1.16058,0,0,1-.21-.33008A.99953.99953,0,0,1,69,74a1.04778,1.04778,0,0,1,.29-.71,1.61012,1.61012,0,0,1,.14941-.12012.74163.74163,0,0,1,.18066-.08984.61507.61507,0,0,1,.18945-.06055A1.008,1.008,0,0,1,70.71,73.29,1.05235,1.05235,0,0,1,71,74a.99953.99953,0,0,1-.08008.37988,1.16058,1.16058,0,0,1-.21.33008A.99347.99347,0,0,1,70,75Z" style="fill:#6d6daa"/></g><g style="opacity:0.5"><path d="M104,85H74a1,1,0,0,1,0-2h30a1,1,0,0,1,0,2Z" style="fill:#6d6daa"/><path d="M98,89H74a1,1,0,0,1,0-2H98a1,1,0,0,1,0,2Z" style="fill:#6d6daa"/><path d="M70,85a.99953.99953,0,0,1-.37988-.08008,1.14723,1.14723,0,0,1-.33008-.21,1.16058,1.16058,0,0,1-.21-.33008.9411.9411,0,0,1,0-.75977,1.14723,1.14723,0,0,1,.21-.33008,1.61012,1.61012,0,0,1,.14941-.12012.74163.74163,0,0,1,.18066-.08984.61507.61507,0,0,1,.18945-.06055A1.02729,1.02729,0,0,1,70.71,83.29a1.14723,1.14723,0,0,1,.21.33008.9411.9411,0,0,1,0,.75977,1.16058,1.16058,0,0,1-.21.33008A.99347.99347,0,0,1,70,85Z" style="fill:#6d6daa"/></g><g style="opacity:0.5"><path d="M104,95H74a1,1,0,0,1,0-2h30a1,1,0,0,1,0,2Z" style="fill:#6d6daa"/><path d="M100,99H74a1,1,0,0,1,0-2h26a1,1,0,0,1,0,2Z" style="fill:#6d6daa"/><path d="M70,95a.99042.99042,0,0,1-1-1,1.38938,1.38938,0,0,1,.01953-.2002.65059.65059,0,0,1,.06055-.17969.74163.74163,0,0,1,.08984-.18066L69.29,93.29a1.61012,1.61012,0,0,1,.14941-.12012.74163.74163,0,0,1,.18066-.08984.61507.61507,0,0,1,.18945-.06055A1.008,1.008,0,0,1,70.71,93.29l.12012.14941a.77846.77846,0,0,1,.08984.18066.61691.61691,0,0,1,.05957.17969A1.26525,1.26525,0,0,1,71,94a.99042.99042,0,0,1-1,1Z" style="fill:#6d6daa"/></g><path d="M85,59a1,1,0,0,1-.707-1.707l5-5A.99989.99989,0,0,1,90.707,53.707l-5,5A.99676.99676,0,0,1,85,59Z" style="fill:#ff9797"/><path d="M90,59a.99676.99676,0,0,1-.707-.293l-5-5A.99989.99989,0,0,1,85.707,52.293l5,5A1,1,0,0,1,90,59Z" style="fill:#ff9797"/></svg>